<?xml version="1.0" standalone="no"?>
<!DOCTYPE svg PUBLIC "-//W3C//DTD SVG 20010904//EN"
 "http://www.w3.org/TR/2001/REC-SVG-20010904/DTD/svg10.dtd">
<svg version="1.0" xmlns="http://www.w3.org/2000/svg"
 width="920.000000pt" height="512.000000pt" viewBox="0 0 920.000000 512.000000"
 preserveAspectRatio="xMidYMid meet">

<g transform="translate(0.000000,512.000000) scale(0.100000,-0.100000)"
fill="#000000" stroke="none">
<path d="M3570 5110 c-530 -8 -592 -13 -762 -70 -177 -59 -304 -139 -430 -268
-201 -206 -289 -414 -319 -747 -13 -151 -18 -1657 -8 -2455 7 -552 11 -613 64
-785 85 -279 284 -515 543 -645 241 -121 416 -140 1298 -140 458 0 513 2 518
16 3 9 6 158 6 332 0 305 1 318 21 352 12 19 238 251 503 516 556 555 578 578
570 597 -3 8 9 31 26 51 l32 36 -576 0 -576 0 0 518 c0 286 -3 560 -6 610 l-7
92 -723 0 c-398 0 -724 3 -724 8 0 4 324 331 720 727 568 567 722 727 730 755
11 40 13 282 4 418 l-7 92 -206 -2 c-113 -1 -424 -5 -691 -8z"/>
<path d="M5438 5103 c6 -2 18 -2 25 0 6 3 1 5 -13 5 -14 0 -19 -2 -12 -5z"/>
<path d="M5968 5093 c7 -3 16 -2 19 1 4 3 -2 6 -13 5 -11 0 -14 -3 -6 -6z"/>
<path d="M6128 5083 c7 -3 16 -2 19 1 4 3 -2 6 -13 5 -11 0 -14 -3 -6 -6z"/>
<path d="M4901 5044 c0 -11 3 -14 6 -6 3 7 2 16 -1 19 -3 4 -6 -2 -5 -13z"/>
<path d="M4925 5050 c-3 -5 -4 -14 -1 -19 10 -15 -25 -6 -35 10 -7 10 -8 6 -5
-14 4 -24 2 -27 -9 -17 -8 6 -11 19 -8 28 3 9 2 14 -2 10 -5 -5 -9 -20 -11
-35 -4 -43 -9 -60 -21 -74 -6 -8 -10 -60 -11 -122 0 -60 -3 -111 -6 -114 -3
-4 -6 4 -6 18 0 13 0 32 0 42 0 9 0 24 0 32 0 8 0 22 0 30 0 8 0 22 0 30 0 8
0 21 -1 28 -1 22 7 45 20 61 7 9 10 16 7 16 -4 0 -2 9 4 20 6 12 7 27 3 35 -7
12 -13 8 -27 -17 -11 -17 -14 -28 -7 -24 6 4 11 1 11 -9 0 -9 -4 -13 -10 -10
-6 4 -7 -1 -3 -11 5 -13 3 -15 -8 -9 -11 7 -12 6 -2 -6 7 -9 8 -20 3 -29 -5
-8 -5 -21 0 -30 5 -9 5 -22 0 -30 -5 -8 -5 -21 0 -30 5 -9 5 -22 0 -30 -5 -8
-6 -18 -3 -23 11 -18 10 -106 -1 -100 -8 5 -8 3 0 -8 12 -17 -3 -142 -17 -134
-5 4 -6 -2 -2 -11 4 -11 3 -15 -4 -11 -7 5 -9 0 -6 -13 3 -11 9 -17 14 -14 5
3 7 9 5 13 -3 4 0 13 5 21 7 11 8 8 5 -10 -3 -14 -5 -27 -6 -30 -2 -3 -2 -9
-1 -15 1 -5 -7 0 -18 12 l-19 23 3 -35 c2 -20 -1 -33 -6 -30 -5 4 -9 -1 -9 -9
0 -8 -4 -18 -10 -21 -11 -7 -2 23 13 43 7 9 6 17 -2 25 -10 9 -11 8 -5 -7 5
-14 4 -17 -5 -12 -6 4 -10 4 -9 -1 1 -4 -4 -24 -11 -43 -8 -19 -13 -39 -12
-43 1 -5 -3 -6 -9 -2 -8 5 -8 11 0 21 7 7 10 19 7 26 -4 8 -6 7 -6 -5 -1 -9
-4 -16 -8 -16 -19 3 -23 -2 -13 -20 7 -14 7 -22 -2 -27 -6 -4 -8 -3 -4 4 3 6
2 13 -4 17 -5 3 -10 -3 -10 -14 0 -11 -5 -23 -10 -26 -6 -4 -7 -11 -4 -17 4
-7 2 -8 -5 -4 -9 6 -9 11 -1 22 7 7 10 19 7 26 -3 8 -6 6 -6 -5 -1 -10 -5 -16
-10 -13 -5 3 -8 -8 -7 -25 1 -16 -2 -33 -7 -36 -6 -3 -8 -2 -5 3 3 5 2 18 -3
29 -7 18 -8 18 -9 -5 -2 -14 -2 -29 -1 -33 1 -5 -3 -5 -9 -2 -6 4 -9 14 -6 24
5 12 2 11 -9 -3 -8 -11 -15 -23 -15 -28 0 -4 -3 -7 -7 -7 -19 3 -23 -2 -13
-20 7 -14 7 -22 -2 -27 -6 -4 -8 -3 -4 4 3 6 2 13 -4 17 -5 3 -10 -3 -10 -14
0 -11 -5 -23 -10 -26 -6 -4 -7 -11 -4 -17 4 -7 2 -8 -5 -4 -9 6 -9 11 -1 22 7
7 10 19 7 26 -3 8 -6 6 -6 -5 -1 -10 -6 -15 -11 -12 -6 4 -10 3 -9 -2 1 -4 0
-19 -1 -33 l-2 -25 -8 25 -8 25 -1 -26 c-1 -14 -10 -34 -21 -44 -11 -10 -17
-22 -13 -28 4 -6 1 -7 -6 -2 -9 5 -7 13 9 30 12 13 20 30 17 37 -4 8 -6 7 -6
-5 -1 -10 -6 -15 -11 -12 -6 4 -9 1 -8 -6 2 -7 -4 -13 -12 -14 -10 0 -14 -9
-13 -30 2 -26 1 -27 -7 -10 -9 18 -10 17 -7 -6 4 -27 -6 -31 -31 -15 -8 5 -12
3 -10 -6 2 -7 -3 -12 -11 -10 -11 2 -10 -4 4 -25 l18 -28 -22 20 c-22 19 -23
19 -37 0 -8 -10 -14 -26 -14 -36 0 -9 -8 -23 -17 -30 -16 -13 -17 -12 -5 3 8
10 12 23 9 30 -3 8 -6 6 -6 -5 -1 -10 -5 -16 -9 -13 -4 2 -9 -3 -10 -12 -4
-33 -8 -52 -14 -58 -4 -3 -5 9 -3 28 2 18 1 25 -1 15 -3 -9 -9 -15 -14 -12 -4
3 -6 -5 -4 -17 2 -13 2 -17 -2 -10 -10 22 -20 13 -18 -18 1 -16 -2 -28 -7 -25
-4 3 -6 12 -2 20 3 8 1 15 -4 15 -5 0 -9 -10 -10 -22 -1 -12 -10 -28 -19 -37
-17 -15 -17 -15 -5 1 7 10 11 23 8 30 -3 8 -6 6 -6 -5 -1 -10 -5 -16 -9 -13
-7 4 -11 -9 -14 -51 -1 -7 -5 -10 -9 -8 -4 3 -6 13 -4 23 1 9 0 11 -2 4 -3 -7
-10 -9 -16 -5 -7 4 -4 -6 7 -22 10 -17 13 -25 6 -18 -7 6 -20 9 -29 6 -14 -4
-14 -3 -1 6 9 7 10 11 3 11 -17 0 -25 -17 -13 -25 8 -5 6 -13 -4 -24 -9 -10
-13 -21 -9 -26 5 -4 2 -5 -5 -1 -7 4 -10 11 -7 16 3 5 1 12 -5 15 -6 4 -10 3
-9 -2 1 -4 0 -19 -1 -33 l-2 -25 -9 25 c-8 23 -8 22 -5 -7 3 -39 -1 -42 -15
-10 -9 21 -9 20 -6 -5 3 -19 -3 -33 -16 -45 -11 -10 -17 -12 -13 -5 4 6 2 12
-3 12 -10 0 -16 -22 -12 -43 1 -5 -3 -6 -8 -3 -5 3 -8 14 -6 24 1 9 0 11 -2 4
-3 -7 -9 -9 -15 -6 -6 4 -6 -1 1 -14 7 -14 8 -23 1 -27 -6 -4 -7 -11 -4 -17 4
-7 2 -8 -5 -4 -6 4 -9 11 -6 16 3 4 2 10 -2 13 -5 2 -1 2 7 0 11 -3 12 -1 3 8
-18 19 -34 2 -23 -26 7 -17 6 -24 -2 -22 -14 3 -20 -62 -7 -83 8 -12 9 -10 6
8 -7 30 1 28 13 -4 9 -23 12 -24 27 -13 15 12 16 12 9 -6 -6 -16 -5 -17 5 -8
9 9 9 16 1 26 -9 11 -8 14 3 14 8 0 12 -4 9 -9 -3 -4 0 -8 6 -8 6 0 9 -4 6 -9
-4 -5 2 -8 11 -6 10 1 23 -2 30 -7 7 -5 14 -5 18 2 3 6 11 7 17 4 7 -4 8 -2 4
5 -6 8 -12 9 -20 2 -7 -6 -16 -7 -20 -3 -4 4 -12 7 -18 7 -6 0 -12 8 -14 18
-2 14 1 15 10 8 7 -6 17 -7 21 -3 5 4 5 1 1 -5 -4 -8 -1 -13 9 -13 10 0 14 5
9 13 -6 10 -4 10 7 0 7 -7 17 -13 22 -13 4 0 5 6 1 13 -6 10 -4 10 7 0 7 -7
17 -13 22 -13 4 0 5 6 1 13 -6 10 -4 10 7 0 7 -7 17 -13 22 -13 4 0 5 6 1 13
-6 10 -4 10 7 0 7 -7 17 -13 22 -13 4 0 5 6 1 13 -6 10 -4 10 7 0 7 -7 17 -13
22 -13 4 0 5 6 1 13 -5 8 -2 8 9 -2 14 -11 17 -11 17 0 0 12 2 12 9 0 6 -9 10
-10 16 -2 5 9 10 9 21 0 11 -9 14 -8 14 2 0 12 2 12 9 0 6 -9 10 -10 16 -2 5
9 10 9 21 0 11 -9 14 -8 14 2 0 12 2 12 9 0 6 -9 10 -10 16 -2 5 9 10 9 21 0
11 -9 14 -8 14 2 0 12 2 12 9 0 6 -9 10 -10 16 -2 5 9 10 9 21 0 11 -9 14 -8
14 2 0 12 2 12 9 0 6 -9 10 -10 16 -2 5 9 10 9 20 1 10 -8 14 -7 18 2 4 10 6
10 6 -1 1 -11 4 -11 18 0 13 11 15 11 9 1 -10 -16 24 -13 37 3 5 6 7 4 4 -5
-2 -8 -9 -15 -15 -15 -5 0 -13 -3 -16 -6 -3 -3 11 -5 32 -4 20 1 42 -2 49 -7
7 -5 14 -5 18 2 9 14 27 2 19 -13 -5 -8 -3 -8 6 0 11 10 17 10 31 -3 16 -14
17 -14 15 3 -2 11 -11 18 -24 17 -14 -1 -19 3 -15 13 5 12 7 12 14 1 5 -7 9
-9 9 -4 0 5 6 4 13 -3 10 -8 17 -7 26 2 7 6 12 8 11 2 -2 -5 -2 -19 -1 -30 1
-17 3 -18 11 -5 8 12 10 12 10 -5 0 -11 5 -27 10 -35 7 -11 8 -6 5 18 -2 18 0
30 5 27 5 -3 6 -13 3 -23 -6 -14 -4 -15 8 -5 13 10 16 10 16 -2 0 -8 -4 -12
-8 -10 -4 3 -9 -8 -11 -23 -2 -18 1 -29 8 -29 6 0 10 7 9 16 -1 9 0 10 2 3 3
-7 9 -9 14 -6 6 3 5 -3 -2 -14 -7 -12 -16 -19 -19 -17 -4 2 -7 -2 -7 -10 0 -8
5 -11 10 -8 6 4 8 -1 4 -11 -4 -10 -3 -15 3 -11 6 3 10 -1 10 -10 0 -9 -4 -14
-8 -11 -5 3 -9 -1 -9 -8 0 -7 6 -13 13 -13 7 0 11 3 9 7 -2 3 0 12 4 18 4 7 7
-28 5 -78 -1 -51 -5 -94 -8 -97 -3 -3 -4 26 -3 64 2 51 -1 70 -10 70 -7 0 -9
-5 -5 -11 4 -6 6 -54 5 -106 -3 -94 -3 -116 -3 -145 0 -8 0 -22 0 -30 0 -8 0
-22 0 -30 0 -8 0 -21 0 -27 6 -282 4 -555 -5 -550 -5 3 -4 -2 4 -11 7 -9 10
-17 6 -17 -5 0 -1 -8 8 -18 10 -10 14 -23 10 -27 -5 -5 0 -3 10 4 15 12 17 11
17 -4 0 -10 3 -16 6 -12 4 3 3 14 -2 24 -9 22 -14 56 -5 48 3 -4 6 -14 6 -23
0 -11 8 -17 23 -16 12 1 21 -1 18 -4 -9 -8 13 -40 26 -38 27 6 48 18 43 26 -3
5 0 12 7 16 7 4 10 4 6 -1 -4 -4 -2 -15 5 -23 7 -10 8 -13 1 -9 -7 4 -18 -1
-25 -10 -12 -15 -12 -16 1 -8 8 6 20 10 25 10 6 0 9 9 7 20 -2 18 -2 19 8 2 6
-9 8 -23 5 -30 -4 -6 0 -4 8 5 11 14 16 15 27 5 10 -9 11 -9 6 1 -4 6 -3 12 3
12 5 0 11 -5 13 -12 3 -7 7 -5 11 6 5 11 3 15 -5 10 -7 -4 -8 -3 -4 5 11 17
25 4 21 -19 -4 -19 -3 -19 20 -3 12 10 21 21 19 25 -2 4 1 10 8 14 7 4 10 4 6
-1 -4 -4 -2 -15 5 -23 7 -10 8 -13 1 -9 -7 4 -18 -1 -25 -10 -12 -15 -12 -16
1 -8 8 6 20 10 25 10 6 0 9 9 7 20 -2 18 -2 19 8 2 6 -9 8 -23 5 -30 -4 -6 0
-4 8 5 11 14 16 15 27 5 10 -9 11 -9 6 1 -4 6 -3 12 3 12 5 0 11 -5 13 -12 3
-7 7 -5 11 6 5 11 3 15 -5 10 -7 -4 -8 -3 -4 5 11 17 25 4 21 -19 -4 -19 -3
-19 20 -3 12 10 21 21 19 25 -2 4 1 10 8 14 7 4 10 4 6 -1 -4 -4 -2 -15 5 -23
7 -10 8 -13 1 -9 -7 4 -18 -1 -25 -10 -12 -15 -12 -16 1 -8 8 6 20 10 25 10 6
0 9 9 7 20 -2 18 -2 19 8 2 6 -9 8 -23 5 -30 -4 -6 0 -4 8 5 11 14 16 15 27 5
10 -9 11 -9 6 1 -4 6 -3 12 3 12 5 0 11 -5 13 -12 3 -7 7 -5 11 6 5 11 3 15
-5 10 -7 -4 -8 -3 -4 5 11 17 25 4 21 -19 -4 -19 -3 -19 20 -3 12 10 21 21 19
25 -2 4 1 10 8 14 7 4 10 4 6 -1 -4 -4 -2 -15 5 -23 7 -10 8 -13 1 -9 -7 4
-18 -1 -25 -10 -12 -15 -12 -16 1 -8 8 6 20 10 25 10 6 0 9 9 7 20 -2 18 -2
19 8 2 6 -9 8 -23 5 -30 -4 -6 0 -4 8 5 11 14 16 15 27 5 10 -9 11 -9 6 1 -4
6 -3 12 3 12 5 0 11 -5 13 -12 3 -7 7 -5 11 6 5 11 3 15 -5 10 -7 -4 -8 -3 -4
5 11 17 25 4 21 -19 -4 -19 -3 -19 20 -3 12 10 21 21 19 25 -2 4 1 10 8 14 7
4 10 4 6 -1 -4 -4 -2 -15 5 -23 7 -10 8 -13 1 -9 -7 4 -18 -1 -25 -10 -12 -15
-12 -16 1 -8 8 6 20 10 25 10 6 0 9 9 7 20 -2 18 -2 19 8 2 6 -9 8 -23 5 -30
-4 -6 0 -4 8 5 11 14 16 15 27 5 10 -9 11 -9 6 1 -4 6 -3 12 3 12 5 0 11 -5
13 -12 3 -7 7 -5 11 6 5 11 3 15 -5 10 -7 -4 -8 -3 -4 5 11 17 25 3 21 -20 -4
-20 -3 -20 14 -5 23 21 37 21 20 -1 -11 -15 -10 -14 9 1 17 14 22 16 22 5 0
-11 2 -11 10 1 9 14 15 6 10 -15 -1 -5 7 -2 18 8 24 22 38 22 21 0 -13 -16
-12 -17 4 -4 9 7 17 10 17 6 0 -4 6 -3 13 4 10 8 17 7 27 -2 10 -9 11 -9 6 1
-4 6 -2 12 4 12 6 0 9 4 5 9 -3 5 -1 12 4 16 6 3 8 -6 5 -22 l-4 -28 15 25 15
25 -4 -28 c-4 -23 -2 -27 9 -17 7 6 12 20 10 32 -3 15 -1 17 9 9 9 -7 16 -7
26 2 12 10 12 9 1 -5 -7 -10 -17 -15 -22 -12 -5 3 -6 -3 -2 -12 4 -11 8 -13
11 -6 2 7 8 12 13 12 6 0 7 -5 3 -12 -4 -7 -3 -8 5 -4 6 4 9 11 6 16 -3 5 -1
11 5 15 6 4 7 11 4 17 -4 7 -2 8 5 4 8 -5 9 -12 2 -20 -5 -6 -6 -18 -2 -25 6
-9 10 -6 16 11 4 12 7 27 6 31 -1 5 3 6 9 2 7 -4 7 -11 2 -18 -5 -7 -9 -20 -9
-29 0 -14 3 -15 14 -7 17 14 17 23 1 13 -9 -5 -9 -2 1 9 15 18 26 23 16 7 -3
-5 -1 -10 6 -10 8 0 7 -5 -2 -17 -13 -16 -12 -17 3 -5 10 8 19 9 22 3 3 -5 14
-8 24 -7 9 2 20 -2 24 -7 13 -21 36 -16 32 7 -4 19 -4 19 6 -2 5 -13 8 -27 5
-31 -2 -4 2 -8 9 -8 14 0 16 14 4 33 -4 6 -2 11 5 11 7 0 13 -13 14 -29 l1
-28 -761 0 c-722 0 -760 -1 -744 -17 16 -16 67 -18 715 -18 583 -1 701 -3 719
-15 18 -12 20 -17 10 -30 -11 -13 -10 -13 5 -1 10 7 16 17 13 21 -3 5 8 18 24
29 l29 21 4 -33 c2 -20 -1 -34 -7 -34 -7 0 -11 10 -10 21 2 14 1 15 -2 3 -2
-9 -9 -15 -14 -11 -6 3 -5 -3 2 -14 7 -12 16 -19 19 -17 4 2 7 -2 7 -10 0 -8
-3 -13 -5 -10 -3 3 -10 0 -17 -5 -8 -7 -12 -5 -12 5 0 8 5 11 11 8 6 -4 5 1
-3 10 -17 21 -20 21 -17 -1 3 -18 -14 -53 -24 -47 -3 2 -5 -14 -4 -35 0 -22
-3 -37 -8 -34 -4 3 -6 15 -4 27 1 12 1 16 -1 9 -3 -7 -9 -10 -14 -7 -5 4 -5
-5 1 -20 7 -17 7 -24 0 -20 -9 6 -15 -8 -11 -29 1 -5 -6 -3 -15 5 -16 12 -17
12 -11 -4 4 -11 3 -16 -3 -12 -9 6 -14 -8 -11 -28 1 -5 -3 -6 -8 -3 -12 8 -33
-18 -23 -29 4 -5 1 -5 -6 -1 -7 4 -10 12 -7 17 4 5 1 9 -5 9 -6 0 -8 5 -4 12
4 7 3 8 -4 4 -8 -4 -8 -15 -2 -31 6 -17 5 -27 -5 -35 -11 -10 -13 -7 -10 17 2
15 2 22 -1 15 -3 -6 -9 -10 -13 -8 -4 3 -6 -9 -5 -25 1 -17 0 -28 -3 -25 -4 3
-13 -2 -21 -12 -8 -10 -7 -5 3 11 9 16 14 31 11 35 -3 3 -6 0 -6 -7 0 -7 -5
-9 -10 -6 -6 4 -9 1 -8 -7 2 -7 -2 -12 -8 -11 -5 1 -9 -12 -8 -28 1 -16 -2
-26 -7 -23 -8 4 -13 -8 -11 -27 1 -3 -5 -6 -13 -6 -8 0 -12 4 -9 9 3 4 0 8 -6
8 -6 0 -8 5 -4 12 4 6 3 8 -3 5 -5 -3 -8 -20 -7 -36 1 -17 -2 -28 -7 -25 -9 5
-13 -10 -10 -30 1 -5 -4 -5 -11 1 -19 15 -47 12 -41 -5 5 -11 7 -11 14 0 5 7
9 8 9 2 0 -18 -12 -24 -26 -13 -10 9 -15 7 -20 -5 -3 -9 -9 -14 -13 -12 -4 3
-8 -5 -8 -17 -2 -18 0 -17 17 8 17 26 19 26 17 7 0 -11 -3 -19 -5 -17 -6 6
-57 -58 -55 -67 5 -13 -4 -9 -18 9 -12 14 -12 16 0 8 10 -6 12 -4 6 5 -6 9 -4
11 5 5 9 -6 11 -4 5 5 -6 9 -4 11 5 5 9 -6 11 -4 5 5 -5 9 -4 11 3 6 8 -5 10
-2 6 8 -5 12 -14 6 -39 -24 -18 -21 -34 -37 -37 -35 -7 8 -1 -41 7 -56 8 -12
6 -12 -8 0 -15 12 -21 9 -18 -11 0 -5 -5 -7 -12 -5 -6 1 -11 -4 -9 -11 1 -8
-2 -11 -8 -7 -5 3 -10 1 -10 -6 0 -7 -3 -9 -7 -6 -4 4 9 23 27 42 18 19 31 38
27 42 -4 3 -7 1 -7 -6 0 -7 -5 -9 -10 -6 -6 4 -9 1 -8 -7 2 -7 -3 -12 -9 -11
-7 2 -12 -3 -10 -10 1 -6 -4 -11 -10 -10 -7 2 -12 0 -12 -5 1 -4 1 -14 0 -22
-1 -13 -2 -13 -11 0 -5 8 -10 10 -10 4 0 -16 25 -35 35 -26 5 4 5 1 1 -6 -6
-10 -11 -10 -22 -1 -8 6 -14 8 -14 3 0 -5 -4 -3 -9 5 -7 11 -10 9 -16 -8 -3
-12 -10 -19 -15 -16 -4 3 -6 -4 -3 -15 3 -11 0 -26 -6 -33 -6 -8 -7 -18 -3
-22 4 -5 1 -5 -6 -1 -7 4 -10 12 -7 17 4 5 1 9 -5 9 -6 0 -8 5 -4 12 4 7 3 8
-4 4 -8 -4 -8 -15 -2 -31 7 -18 6 -24 -3 -22 -7 1 -11 -5 -9 -13 2 -8 0 -12
-4 -8 -10 11 -35 -12 -27 -25 3 -5 1 -7 -4 -4 -11 7 -28 -20 -24 -36 1 -5 -3
-6 -9 -2 -6 3 -8 11 -5 16 4 5 1 9 -5 9 -6 0 -8 5 -4 12 4 7 3 8 -4 4 -8 -4
-8 -15 -2 -31 5 -14 6 -24 1 -22 -5 1 -17 -9 -28 -22 -15 -19 -22 -21 -28 -11
-5 9 -4 11 3 6 8 -5 10 -1 6 9 -6 14 -10 12 -24 -9 -9 -15 -19 -24 -21 -22 -3
3 -6 -5 -6 -16 -2 -19 0 -19 17 7 17 25 19 26 17 8 0 -12 -5 -19 -9 -17 -4 3
-9 0 -9 -5 -1 -6 -2 -15 -3 -20 0 -5 -5 -13 -10 -18 -5 -4 -7 -4 -3 2 3 6 -1
19 -9 30 -14 19 -15 18 -9 -13 5 -28 3 -31 -9 -20 -8 7 -11 18 -8 23 3 6 1 6
-4 2 -5 -5 -9 -14 -9 -20 -1 -7 -6 -11 -13 -10 -7 2 -11 -3 -9 -10 1 -6 -4
-11 -10 -10 -7 2 -12 -3 -10 -10 1 -6 -4 -11 -10 -10 -7 2 -12 -3 -10 -10 1
-6 -3 -11 -10 -10 -8 2 -10 -4 -6 -14 4 -10 2 -14 -5 -9 -6 3 -17 -3 -25 -14
-7 -11 -16 -18 -18 -15 -3 2 -6 -6 -6 -17 -2 -19 0 -19 17 7 17 26 19 26 17 7
0 -11 -3 -19 -6 -17 -6 7 -36 -38 -33 -49 2 -5 -4 -4 -12 4 -19 15 -21 24 -4
14 7 -5 8 -3 3 6 -5 9 -4 11 3 6 8 -5 10 -2 6 9 -5 13 -11 10 -29 -15 -12 -16
-25 -27 -29 -23 -4 4 -3 -5 3 -20 8 -20 7 -26 -2 -24 -7 1 -11 -5 -9 -13 2 -8
0 -12 -4 -8 -4 4 -13 3 -21 -3 -11 -10 -11 -15 -1 -28 12 -14 11 -14 -4 -2
-17 12 -23 9 -19 -12 1 -5 -3 -6 -8 -3 -9 6 -26 -22 -22 -38 1 -5 -5 -4 -13 4
-18 14 -22 25 -6 15 6 -3 7 1 4 10 -6 14 -10 12 -24 -9 -9 -15 -20 -23 -24
-19 -4 5 -6 1 -4 -7 2 -8 -2 -14 -7 -13 -6 1 -12 -7 -12 -18 -2 -16 4 -13 26
14 27 35 27 35 41 14 12 -19 11 -21 -2 -9 -12 10 -17 10 -27 -1 -6 -8 -7 -18
-3 -22 4 -5 1 -5 -5 -1 -7 4 -14 2 -14 -3 -1 -6 -2 -15 -3 -20 0 -5 -5 -13
-10 -18 -5 -5 -6 -3 -2 5 4 7 1 15 -8 18 -9 3 -13 11 -9 18 3 6 2 7 -3 3 -5
-5 -10 -13 -10 -18 -1 -5 -2 -14 -3 -20 0 -5 -5 -8 -9 -5 -4 2 -9 -7 -10 -20
-1 -18 2 -23 11 -18 6 4 8 3 4 -1 -16 -18 -35 -13 -30 9 4 18 3 18 -9 -4 -15
-26 -12 -64 4 -54 5 3 4 13 -4 22 -11 15 -11 15 3 5 9 -7 20 -9 25 -5 5 4 -1
-4 -13 -18 -25 -28 -26 -39 -10 -60 11 -13 10 -13 -7 0 -18 13 -19 13 -14 0 3
-8 2 -24 -2 -35 -6 -16 -8 -13 -7 13 0 18 4 35 8 38 9 5 3 43 -7 53 -4 3 -4
-2 -1 -11 3 -10 2 -20 -2 -23 -5 -2 -8 -34 -7 -69 1 -40 -2 -62 -7 -59 -6 3
-7 1 -3 -6 4 -6 12 -8 18 -5 7 5 8 2 2 -7 -10 -16 -15 -38 -15 -56 1 -7 1 -38
1 -68 0 -82 0 -83 2 -114 1 -17 6 -27 12 -24 5 4 7 0 3 -10 -3 -8 0 -21 8 -27
12 -10 13 -8 10 10 -2 12 -8 27 -13 34 -9 10 -12 27 -12 61 0 8 0 40 0 70 0
30 0 62 0 70 0 32 4 42 17 42 9 0 10 -4 3 -11 -14 -14 -13 -49 3 -65 7 -8 7
-11 1 -8 -8 5 -11 -17 -11 -73 0 -72 1 -79 16 -68 13 10 14 10 4 -1 -12 -14
-7 -44 6 -36 4 2 7 -6 7 -18 -1 -13 5 -22 14 -22 8 -1 14 -7 12 -15 -2 -10 0
-11 10 -3 7 6 36 9 63 8 34 -2 44 0 30 5 -19 8 -19 9 3 9 13 1 21 5 18 9 -3 5
1 9 9 9 8 0 13 -2 10 -5 -2 -3 0 -13 6 -24 7 -13 14 -16 22 -10 7 4 35 8 64 7
28 -1 50 2 47 7 -3 4 -1 8 5 8 5 0 12 -6 15 -12 4 -7 5 -4 2 8 -2 12 2 21 9
21 7 0 10 -9 8 -21 -4 -17 -3 -18 6 -6 10 14 15 7 12 -13 -1 -7 12 -2 40 15 3
1 13 -3 22 -11 14 -11 18 -11 23 2 3 9 3 20 0 25 -3 5 1 9 8 9 8 0 11 -8 8
-21 -5 -18 -4 -18 10 -5 9 7 13 19 10 24 -3 6 1 5 9 -2 23 -18 25 -19 41 -6
12 10 15 10 15 -1 0 -9 -10 -12 -29 -11 -29 3 -46 -9 -29 -19 5 -4 12 -3 15 2
6 10 66 9 83 -1 6 -4 15 -3 18 3 5 8 12 7 23 -2 12 -10 14 -10 8 0 -9 16 6 16
23 0 7 -7 11 -8 10 -3 -1 6 1 18 5 27 7 16 10 16 27 -5 10 -12 18 -18 19 -13
0 5 8 2 17 -5 9 -8 14 -9 10 -3 -8 14 60 13 82 0 9 -6 12 -5 8 1 -4 6 0 18 7
28 13 18 14 18 24 -2 6 -11 10 -22 9 -25 -1 -2 6 5 17 17 10 11 26 20 36 20 9
0 25 7 36 15 17 14 18 13 7 -1 -10 -12 -10 -19 1 -35 14 -18 15 -18 25 6 8 22
10 22 11 5 l1 -20 8 20 c5 11 7 23 5 26 -2 3 4 6 12 6 10 0 11 -4 4 -11 -5 -5
-10 -17 -10 -26 0 -13 1 -13 10 0 16 26 68 12 53 -14 -4 -7 -1 -6 7 1 11 10
11 16 -3 31 -14 15 -14 19 -3 19 8 0 14 -5 13 -11 -2 -11 22 -16 38 -7 17 9
35 10 30 1 -3 -5 -1 -11 5 -15 6 -4 7 -12 3 -18 -3 -7 3 -4 15 7 12 10 19 22
17 27 -3 4 6 6 21 3 19 -3 24 -1 18 8 -6 10 -5 11 8 1 8 -7 18 -10 21 -7 4 4
4 -3 2 -16 -4 -21 -3 -21 14 -6 10 9 21 13 26 9 4 -5 5 -2 1 5 -4 6 -3 12 3
12 5 0 12 -6 14 -12 4 -10 6 -10 6 0 1 6 6 12 12 12 5 0 7 -6 3 -12 -5 -8 0
-7 11 2 10 8 21 14 24 13 3 -2 6 4 6 11 0 8 4 18 9 23 5 5 6 2 2 -5 -9 -16 24
-13 37 3 5 6 7 4 4 -5 -2 -8 -9 -15 -15 -15 -7 0 -12 -3 -12 -7 0 -5 0 -11 0
-14 0 -4 6 -1 13 5 8 6 18 7 22 3 5 -4 5 -2 1 5 -3 6 -2 14 4 18 6 4 7 11 4
17 -4 7 -2 8 4 4 6 -4 9 -14 6 -24 -5 -15 -5 -15 6 1 6 9 8 23 4 30 -4 6 -4 9
1 5 4 -4 15 -2 24 4 13 10 14 10 4 -2 -17 -19 -17 -35 0 -21 10 8 17 7 26 -2
11 -10 11 -8 2 10 -8 16 -8 24 1 29 6 4 8 3 4 -4 -3 -6 -2 -13 4 -17 5 -3 10
2 10 12 0 15 2 16 10 3 9 -13 10 -13 10 0 0 13 1 13 10 0 9 -13 10 -13 11 0 1
8 1 19 0 23 -1 5 3 6 9 2 5 -3 10 -1 10 6 0 7 3 9 6 6 4 -4 1 -13 -5 -21 -8
-10 -9 -16 -1 -21 6 -4 9 -1 8 7 -2 8 5 12 17 10 13 -2 16 0 8 5 -12 9 -12 37
0 49 3 4 5 -3 2 -14 -2 -12 3 -23 11 -26 17 -6 29 17 20 39 -3 8 0 14 7 12 7
-1 11 4 9 12 -3 12 0 12 12 1 19 -15 21 -24 4 -14 -7 4 -8 3 -4 -5 12 -18 28
-2 20 21 -5 18 -4 19 9 7 8 -8 12 -18 9 -24 -3 -5 4 -2 15 8 11 9 22 15 24 13
8 -9 3 40 -6 55 -8 12 -6 12 8 0 9 -7 18 -11 18 -7 1 3 2 10 3 15 3 21 12 18
12 -4 0 -13 -4 -23 -9 -22 -5 1 -12 -5 -14 -13 -4 -12 -3 -12 5 -2 5 8 13 13
17 13 8 -1 15 17 17 46 1 7 5 10 9 7 5 -2 7 -10 5 -17 -1 -7 -1 -9 1 -4 3 4
10 4 16 0 7 -4 4 5 -5 19 -13 19 -15 29 -6 34 6 4 8 3 4 -4 -3 -6 -2 -13 4
-17 9 -6 14 8 11 28 -1 5 3 6 8 3 5 -4 13 3 16 15 4 11 9 18 12 15 3 -3 -4
-21 -16 -40 -14 -22 -18 -37 -11 -41 6 -4 10 -3 9 2 -3 20 2 34 11 28 6 -4 9
-3 8 2 -1 4 3 17 9 28 6 11 9 28 7 38 -1 11 0 16 3 13 4 -3 12 -1 20 5 10 9
17 8 30 -2 9 -8 14 -9 11 -4 -8 15 10 57 22 50 6 -4 10 -3 9 2 -5 18 21 64 33
57 6 -4 8 -3 5 3 -4 6 0 16 8 23 7 6 11 19 8 27 -5 12 -3 14 7 8 8 -5 11 -4 6
3 -3 5 -1 12 6 14 8 3 6 7 -5 11 -9 3 -16 3 -15 -1 1 -4 -3 -17 -10 -28 -6
-12 -8 -25 -4 -30 4 -5 -1 -2 -10 5 -19 14 -25 26 -8 16 6 -3 10 -1 10 4 0 22
2 26 17 43 8 9 12 22 7 29 -5 8 -3 10 5 5 7 -5 10 -14 8 -20 -3 -7 0 -13 6
-13 7 0 13 17 15 36 2 20 4 45 6 56 1 11 -1 25 -5 30 -5 7 1 11 14 12 17 2 19
0 7 -7 -13 -9 -13 -10 0 -10 13 0 13 -1 0 -10 -13 -8 -13 -11 -1 -22 9 -8 11
-9 7 -1 -3 6 -2 14 4 18 6 4 8 10 5 15 -3 5 -1 11 5 15 14 9 1 27 -13 19 -7
-4 -1 5 12 19 14 15 21 27 17 27 -5 0 -2 8 5 17 8 10 9 14 2 10 -6 -4 -14 -3
-18 3 -3 5 -1 10 4 10 6 0 11 8 11 17 0 9 8 25 18 36 9 11 11 17 5 13 -7 -4
-13 -3 -13 1 0 5 6 15 13 22 9 11 9 13 0 7 -7 -4 -14 -2 -14 3 -1 6 -2 17 -3
24 -1 6 -8 11 -16 9 -10 -2 -11 0 -3 10 6 7 9 21 8 31 -2 9 0 15 4 13 3 -2 6
26 6 62 -1 37 1 71 3 76 11 20 10 72 -1 85 -9 11 -9 13 0 8 14 -9 35 26 31 51
-1 9 1 23 6 31 6 10 5 12 -2 7 -7 -4 -12 -1 -12 9 0 9 -5 13 -10 10 -6 -4 -7
-12 -3 -18 13 -17 16 -64 5 -71 -5 -3 -7 6 -4 21 4 20 2 24 -9 18 -12 -7 -12
-6 -1 7 9 12 10 18 2 23 -8 5 -8 11 -1 19 7 8 7 16 0 23 -6 6 -5 10 5 10 8 0
13 -3 11 -7 -2 -4 3 -7 11 -7 10 0 11 4 5 10 -7 7 -6 17 0 30 8 14 8 18 0 13
-15 -10 -14 7 2 23 10 11 9 13 -1 7 -14 -8 -12 19 2 43 6 10 5 12 -2 7 -13 -8
-17 6 -5 17 9 10 10 56 1 51 -4 -3 -8 11 -8 31 0 20 4 34 8 31 5 -3 9 1 9 9 0
8 -4 12 -9 9 -4 -3 -8 7 -8 21 0 14 4 24 8 21 5 -3 9 1 9 9 0 8 -4 12 -9 9 -4
-3 -8 7 -8 21 0 14 -4 24 -9 20 -5 -3 -12 -1 -15 4 -7 10 13 9 30 -1 6 -4 11
-1 11 7 0 8 -4 12 -9 9 -4 -3 -8 2 -8 11 0 9 3 14 8 11 4 -2 7 20 7 49 0 48
-6 64 -11 32 -1 -7 -4 -24 -7 -40 -4 -18 -2 -25 5 -21 7 4 8 2 4 -5 -12 -19
-25 -2 -20 26 3 15 7 30 9 34 3 4 -2 12 -10 19 -9 7 -12 17 -7 24 10 14 10 87
-1 103 -4 6 -2 15 4 19 7 4 9 3 5 -4 -3 -6 -2 -13 3 -17 5 -3 8 -14 6 -25 -2
-11 2 -20 8 -20 7 0 6 -4 -3 -10 -13 -9 -13 -10 0 -10 13 0 13 -1 0 -10 -13
-8 -13 -10 -1 -10 11 0 10 -4 -4 -13 -11 -9 -14 -16 -8 -20 6 -4 14 1 18 11
11 24 12 111 2 105 -9 -5 -5 61 6 105 4 15 2 20 -5 16 -8 -5 -9 -1 -4 12 13
32 15 55 5 49 -5 -4 -7 -10 -5 -14 3 -4 0 -13 -5 -21 -7 -11 -8 -7 -5 12 3 15
8 33 12 39 9 15 11 208 2 202 -5 -2 -8 1 -8 7 0 6 -6 8 -12 4 -8 -4 -10 -3 -5
2 5 5 14 9 20 9 5 0 11 10 12 22 1 12 -2 20 -7 17 -4 -3 -8 2 -8 11 0 9 3 14
8 12 4 -3 7 14 7 38 0 24 -3 41 -7 38 -10 -5 -10 11 -1 21 9 9 10 85 1 79 -5
-2 -8 0 -8 6 0 5 3 11 8 14 4 2 1 2 -5 1 -17 -4 -17 13 -1 18 8 3 13 26 13 65
0 34 -3 59 -7 57 -10 -6 -10 10 -1 20 10 10 11 126 1 120 -4 -3 -8 2 -8 11 0
9 4 14 8 11 5 -3 9 1 9 9 0 8 -4 12 -9 9 -4 -3 -8 11 -8 31 0 20 4 34 8 31 5
-3 9 1 9 9 0 8 -4 12 -9 9 -4 -3 -8 7 -8 21 0 14 4 24 8 21 5 -3 9 1 9 9 0 8
-4 12 -9 9 -4 -3 -8 7 -8 21 0 14 -4 24 -9 20 -5 -3 -12 -1 -15 4 -7 10 13 9
30 -1 6 -4 11 -1 11 7 0 8 -4 12 -9 9 -4 -3 -8 2 -8 11 0 9 4 14 9 10 9 -5 9
2 1 40 -1 6 -1 12 0 15 6 17 5 48 -2 44 -10 -6 -3 39 8 57 4 7 3 9 -3 6 -10
-7 -22 17 -28 58 -2 11 -6 30 -9 43 -3 13 -1 20 5 17 12 -8 12 2 -1 25 -6 10
-6 21 -2 24 10 6 7 59 -3 77 -5 8 -4 10 3 5 8 -4 12 0 12 11 0 15 2 16 10 3 5
-8 5 -17 0 -20 -4 -3 -7 -20 -6 -38 1 -18 -1 -35 -6 -38 -4 -3 -3 -14 3 -26 8
-14 8 -23 0 -31 -6 -6 -7 -17 -2 -26 5 -9 7 -24 6 -33 -2 -10 1 -18 7 -18 6 0
8 6 5 14 -3 7 0 19 6 26 8 9 8 11 1 7 -8 -5 -12 9 -12 43 0 34 4 48 12 43 6
-4 6 -1 -2 9 -12 15 -12 44 0 63 4 6 3 17 -2 25 -5 9 -4 20 3 29 7 9 7 12 1 8
-7 -4 -10 17 -9 68 1 41 -1 75 -4 75 -4 0 -6 -35 -6 -78 1 -56 -3 -79 -12 -79
-11 0 -10 6 11 43 1 1 -8 12 -19 25 -15 18 -15 20 -2 10 16 -13 25 -2 10 13
-11 10 -12 37 -2 30 12 -7 11 3 -2 28 -8 15 -8 19 0 14 6 -4 11 -2 11 4 0 6 4
9 8 6 5 -3 9 1 9 9 0 8 -4 12 -9 9 -4 -3 -8 0 -8 5 0 6 6 11 13 11 9 0 8 3 -2
9 -8 5 -11 16 -7 29 4 12 3 29 -3 39 -6 12 -6 25 0 35 6 10 6 19 0 23 -5 3 -8
14 -6 25 2 12 0 18 -4 15 -5 -3 -7 -22 -6 -42 2 -21 1 -32 -2 -25 -2 6 -10 9
-15 6 -7 -5 -8 -2 -2 7 4 8 9 24 10 36 0 12 7 30 15 40 12 14 12 16 0 8 -11
-6 -13 -4 -8 9 4 11 3 15 -4 10 -7 -4 -10 3 -8 17 2 13 0 30 -5 37 -4 7 -5 19
-2 27 3 8 1 17 -5 21 -6 3 -8 13 -5 21 4 9 2 11 -6 7 -7 -5 -9 -2 -5 8 3 9 0
21 -6 27 -6 6 -7 11 -3 11 5 0 3 7 -4 15 -7 8 -9 15 -5 15 5 0 0 9 -10 20 -10
11 -15 20 -11 20 3 0 -5 18 -18 39 -14 21 -22 42 -18 47 4 4 1 4 -5 0 -8 -4
-13 -1 -13 8 0 9 -9 25 -19 35 -11 11 -16 23 -13 27 4 4 1 3 -7 -1 -11 -6 -13
-4 -8 9 4 10 3 15 -3 11 -6 -3 -10 1 -10 9 0 8 -9 21 -20 29 -11 8 -17 17 -12
22 4 5 2 5 -5 1 -6 -3 -13 1 -16 11 -4 16 -5 16 -6 1 0 -9 9 -24 21 -32 12 -9
17 -16 10 -16 -8 0 -10 -5 -6 -12 4 -8 3 -10 -2 -5 -5 5 -9 14 -9 20 -1 7 -5
11 -11 10 -9 -1 -13 11 -16 54 -1 7 -5 10 -10 7 -5 -3 -5 -10 -2 -16 4 -6 2
-8 -4 -4 -6 3 -9 15 -7 26 3 14 0 18 -8 13 -15 -9 -41 -14 -33 -6 3 4 1 12 -5
20 -10 11 -15 11 -28 1 -14 -11 -14 -11 -3 3 17 22 -7 45 -27 26 -11 -10 -11
-8 0 10 10 18 10 24 0 37 -7 9 -17 14 -21 11 -4 -3 -11 2 -14 11 -3 8 -10 13
-15 9 -6 -3 -14 3 -20 12 -6 10 -11 13 -11 8 0 -6 5 -16 12 -23 7 -7 8 -12 4
-12 -5 0 -2 -8 5 -17 11 -16 11 -16 -1 -5 -8 7 -15 17 -15 22 0 17 -46 70 -56
65 -14 -9 0 -27 14 -19 7 4 8 3 4 -1 -16 -19 -35 -13 -33 10 3 23 -15 28 -31
10 -4 -4 -3 -5 3 -2 6 3 11 0 11 -8 0 -13 -4 -12 -19 2 -19 17 -24 28 -8 18 6
-3 10 -1 10 4 0 16 -10 14 -34 -6 -16 -14 -18 -14 -8 -2 10 13 8 19 -8 34 -11
10 -20 15 -20 10 0 -4 -7 -2 -15 5 -8 7 -15 9 -15 5 0 -4 -6 -3 -13 3 -10 9
-19 7 -36 -5 -22 -15 -23 -15 -12 5 9 17 8 20 -7 17 -9 -2 -21 -4 -26 -4 -5
-1 -2 -9 5 -18 11 -15 10 -14 -9 1 -22 19 -30 32 -13 21 5 -3 12 -2 15 3 2 4
-5 9 -17 10 -12 0 -31 2 -42 3 -40 4 -66 -1 -60 -11 10 -16 -1 -11 -16 7 -8
10 -9 14 -2 10 6 -4 14 -4 16 0 3 5 -8 9 -24 9 -16 1 -29 -3 -29 -8 0 -5 5 -6
12 -2 7 5 8 3 3 -6 -6 -10 -11 -10 -20 3 -7 9 -15 14 -18 10 -4 -3 -7 0 -7 7
0 7 -3 10 -7 7 -3 -4 2 -17 13 -29 12 -14 13 -18 3 -10 -9 6 -19 8 -23 4 -4
-4 -7 -2 -6 3 1 6 2 17 0 25 -1 11 -4 9 -10 -5 -6 -13 -9 -15 -9 -5 -1 10 -13
16 -41 17 -33 2 -38 0 -34 -15 3 -9 -2 -6 -10 8 -8 14 -15 19 -16 11 0 -10 -3
-11 -14 -2 -9 8 -16 8 -20 2 -4 -6 -13 -8 -21 -4 -10 3 -15 -1 -16 -13 0 -18
-1 -17 -9 1 -6 14 -9 16 -10 5 -2 -8 -2 -19 -1 -23 1 -5 -4 -5 -11 0 -22 13
-72 10 -93 -6 -19 -16 -20 -15 -2 5 24 29 23 30 -25 29 -24 0 -47 4 -51 10 -5
6 -7 3 -4 -7 3 -9 -2 -22 -11 -30 -15 -12 -16 -11 -4 4 21 27 -2 33 -133 33
-116 1 -152 -6 -138 -28 3 -6 1 -7 -5 -3 -6 4 -8 14 -5 24 5 14 2 13 -11 -3
-10 -11 -15 -14 -11 -7 5 9 -12 12 -70 12 -58 0 -75 -3 -70 -12 4 -7 -1 -4 -9
6 -14 17 -16 17 -16 4 0 -9 -4 -19 -9 -22 -5 -3 -8 2 -7 11 1 13 -9 17 -51 18
-29 1 -53 -2 -53 -7 0 -5 5 -6 12 -2 7 5 8 3 3 -6 -7 -11 -12 -9 -23 8 -14 21
-16 22 -33 6 -11 -10 -19 -14 -19 -9 0 4 -8 1 -17 -6 -16 -13 -17 -12 -5 3 10
12 10 18 1 24 -8 4 -9 3 -5 -4 4 -7 3 -12 -3 -12 -5 0 -12 6 -15 13 -3 6 -3 0
-1 -16 2 -16 0 -25 -6 -22 -5 4 -7 11 -4 16 4 5 1 9 -5 9 -6 0 -8 5 -5 10 3 6
4 10 1 10 -3 0 -8 -4 -11 -10z m101 -28 c-17 -16 -18 -16 -5 5 7 12 15 20 18
17 3 -2 -3 -12 -13 -22z m65 -5 c-10 -9 -11 -8 -5 6 3 10 9 15 12 12 3 -3 0
-11 -7 -18z m63 14 c-8 -8 -34 -10 -38 -2 -3 4 6 7 19 7 14 0 22 -2 19 -5z
m394 -8 c-9 -11 -14 -11 -26 -1 -18 16 -16 16 -35 0 -9 -7 -18 -9 -21 -4 -3 5
-19 8 -36 7 -17 -1 -32 0 -34 4 -2 3 33 6 79 6 67 0 81 -2 73 -12z m23 -6
c-10 -9 -11 -8 -5 6 3 10 9 15 12 12 3 -3 0 -11 -7 -18z m49 18 c0 -2 -6 -8
-13 -14 -10 -8 -14 -7 -14 2 0 8 6 14 14 14 7 0 13 -1 13 -2z m6 -23 c-17 -16
-18 -16 -5 5 7 12 15 20 18 17 3 -2 -3 -12 -13 -22z m316 13 c2 3 5 -2 5 -10
0 -11 -4 -12 -14 -4 -7 6 -13 8 -13 5 0 -4 -5 -4 -10 -1 -6 4 -8 11 -4 16 4 6
10 6 18 0 7 -6 15 -9 18 -6z m-236 -7 c4 -7 4 -10 -1 -6 -4 4 -15 2 -24 -5
-14 -11 -14 -10 -2 6 16 20 18 21 27 5z m188 -4 c3 -8 2 -12 -4 -9 -6 3 -10
10 -10 16 0 14 7 11 14 -7z m132 3 c4 -3 -4 -4 -16 -2 -30 6 -40 16 -12 12 12
-2 24 -6 28 -10z m-1193 -22 c-3 -9 -8 -14 -10 -11 -3 3 -2 9 2 15 9 16 15 13
8 -4z m1416 -1 c3 -4 -2 -4 -11 -1 -9 3 -18 1 -21 -6 -2 -6 -6 -4 -10 5 -4 13
-1 16 15 13 11 -3 23 -7 27 -11z m131 -29 c0 4 7 2 15 -5 8 -7 15 -9 15 -4 0
4 5 3 12 -4 9 -9 9 -15 -1 -24 -10 -11 -11 -9 -5 6 5 13 4 17 -4 12 -6 -3 -13
-2 -17 4 -9 14 -27 1 -19 -13 4 -7 3 -8 -2 -4 -5 5 -9 13 -9 18 0 5 -4 9 -10
8 -5 -1 -9 -5 -7 -11 1 -5 -2 -7 -8 -3 -8 5 -7 11 1 21 9 11 15 11 25 3 8 -6
14 -8 14 -4z m171 -98 c-10 -9 -11 -8 -5 6 3 10 9 15 12 12 3 -3 0 -11 -7 -18z
m89 -32 c14 9 23 -16 11 -28 -9 -9 -10 -7 -5 8 7 18 6 19 -11 5 -10 -8 -16
-10 -12 -3 4 6 3 14 -3 18 -5 3 -10 12 -10 18 0 7 5 4 11 -6 6 -9 14 -15 19
-12z m-1810 -149 c0 -3 -4 -8 -10 -11 -5 -3 -10 -1 -10 4 0 6 5 11 10 11 6 0
10 -2 10 -4z m3 -28 c-6 -7 -10 -30 -10 -50 0 -21 -3 -41 -6 -45 -15 -14 -6
-25 11 -12 16 13 16 13 0 -7 -14 -16 -15 -23 -5 -34 10 -12 9 -12 -4 -2 -13
10 -19 48 -9 60 1 1 2 19 2 40 1 33 12 62 25 62 3 0 1 -6 -4 -12z m2051 -74
c8 -3 18 -15 21 -25 4 -11 18 -37 32 -58 14 -22 25 -43 25 -48 0 -4 7 -16 15
-25 9 -10 13 -18 8 -18 -4 0 -2 -7 5 -15 7 -8 9 -15 5 -15 -4 0 -2 -6 4 -14 9
-10 8 -16 -3 -25 -12 -10 -14 -9 -11 6 1 10 -4 26 -13 36 -8 9 -12 17 -7 17 4
0 2 7 -5 15 -7 8 -9 15 -5 15 4 0 2 7 -5 15 -7 8 -10 15 -6 15 4 0 -1 14 -9
30 -9 17 -20 28 -26 25 -5 -4 -9 -3 -8 2 4 23 -2 43 -11 38 -6 -4 -9 -1 -8 7
2 7 -3 12 -9 11 -7 -2 -12 0 -11 5 3 13 -14 42 -22 37 -5 -3 -6 4 -3 16 5 19
7 18 19 -10 7 -17 20 -34 28 -37z m134 -275 c9 -12 9 -16 -1 -16 -7 0 -14 9
-14 20 -1 11 -1 18 0 16 2 -2 8 -11 15 -20z m21 -58 c2 -1 -2 -7 -8 -14 -6 -8
-9 -16 -6 -19 3 -3 -2 -11 -12 -19 -15 -12 -16 -12 -8 1 13 20 13 32 3 47 -8
10 -4 11 31 4z m-2477 -24 c-7 -8 -8 -18 -4 -23 4 -4 -1 -2 -10 5 -19 14 -25
26 -8 16 6 -3 13 1 16 10 4 9 9 14 12 11 3 -3 0 -12 -6 -19z m2481 -41 c3 -8
-2 -20 -11 -27 -14 -11 -15 -11 -5 0 6 7 9 20 6 27 -3 8 -3 14 0 14 3 0 7 -6
10 -14z m23 -163 c-5 -12 -9 -13 -21 -3 -11 9 -12 16 -2 31 10 16 13 16 20 3
5 -8 6 -22 3 -31z m-2706 -19 c0 -8 -19 -13 -24 -6 -3 5 1 9 9 9 8 0 15 -2 15
-3z m2705 -33 c1 -10 -4 -18 -11 -18 -9 0 -10 5 -4 17 5 10 7 20 5 24 -3 3 -2
4 2 1 4 -3 7 -14 8 -24z m-2768 -5 c-7 -14 -13 -23 -15 -21 -7 6 9 45 18 45 4
0 3 -11 -3 -24z m-398 -520 c-1 -20 -2 -20 -6 -1 -3 11 -10 27 -17 35 -10 13
-9 13 7 1 9 -7 16 -23 16 -35z m696 4 c10 8 15 8 20 0 5 -8 11 -8 19 -1 9 8
13 7 13 -4 0 -8 -4 -12 -8 -9 -4 2 -11 0 -14 -6 -4 -7 -11 -7 -18 -2 -7 5 -20
8 -29 7 -12 -2 -15 2 -10 13 4 11 7 12 10 4 3 -10 7 -10 17 -2z m2489 -61 c-3
-5 -10 -7 -15 -3 -5 3 -7 10 -3 15 3 5 2 16 -3 22 -4 7 0 4 9 -6 10 -11 15
-23 12 -28z m0 -51 c-9 -14 -23 2 -17 18 4 12 8 13 14 3 4 -7 5 -17 3 -21z
m-23 -15 c13 -16 12 -17 -3 -4 -10 7 -18 15 -18 17 0 8 8 3 21 -13z m-2238
-24 c-6 -6 -9 -19 -6 -28 4 -13 3 -14 -5 -1 -10 14 1 40 16 40 3 0 1 -5 -5
-11z m2242 -38 c-3 -5 -1 -13 5 -16 8 -5 8 -11 1 -19 -6 -7 -7 -17 -3 -21 4
-5 1 -5 -6 -1 -10 6 -10 11 -2 21 8 9 8 15 0 20 -10 6 -5 25 6 25 3 0 3 -4 -1
-9z m6 -95 c-6 -7 -7 -17 -3 -21 4 -5 1 -5 -6 -1 -9 6 -10 11 -3 20 6 7 7 17
3 21 -4 5 -1 5 6 1 9 -6 10 -11 3 -20z m-6 -45 c-3 -5 -1 -13 5 -16 8 -5 8
-11 0 -20 -7 -9 -6 -16 4 -24 15 -12 16 -28 3 -48 -5 -8 -3 -13 5 -13 9 0 9
-3 -2 -10 -13 -9 -13 -10 0 -10 13 0 13 -1 0 -10 -13 -9 -13 -10 0 -10 12 -1
11 -3 -3 -11 -14 -8 -16 -14 -6 -25 6 -8 8 -14 3 -14 -5 0 -2 -5 6 -10 12 -7
10 -9 -7 -7 -16 1 -19 5 -12 13 7 8 6 14 -1 19 -6 3 -7 12 -3 18 10 17 11 117
0 124 -4 2 -3 11 3 18 8 9 8 15 0 20 -10 6 -5 25 6 25 3 0 3 -4 -1 -9z m-2242
-212 c-1 -66 -4 -123 -7 -126 -3 -4 -6 4 -6 18 0 13 0 32 0 42 0 9 0 24 0 32
0 8 0 22 0 30 0 8 0 22 0 30 0 8 0 23 0 33 0 9 0 27 0 40 0 12 4 22 8 22 4 0
6 -54 5 -121z m2257 -39 c-13 -9 -13 -10 0 -10 13 0 13 -1 0 -10 -13 -9 -13
-10 0 -10 12 0 13 -2 1 -9 -11 -7 -11 -9 0 -14 8 -3 4 -4 -8 -4 -12 1 -19 6
-15 12 9 14 10 28 1 40 -5 7 1 11 14 12 17 2 19 0 7 -7z m4 -148 c2 -17 -2
-36 -9 -42 -9 -8 -12 -5 -11 12 0 13 4 25 8 28 4 3 0 19 -8 35 -14 27 -14 29
0 15 9 -9 18 -30 20 -48z m-2253 14 c-4 -6 -11 -18 -14 -26 -3 -8 -5 -3 -4 11
1 14 7 26 14 26 8 0 9 -5 4 -11z m0 -80 c-4 -6 -11 -18 -14 -26 -3 -8 -5 -3
-4 11 1 14 7 26 14 26 8 0 9 -5 4 -11z m2251 -44 l-6 -27 -6 25 c-8 30 -1 58
10 40 4 -6 5 -23 2 -38z m-2251 -36 c-4 -6 -11 -18 -14 -26 -3 -8 -5 -3 -4 11
1 14 7 26 14 26 8 0 9 -5 4 -11z m2253 -32 c5 -14 4 -15 -9 -4 -17 14 -19 20
-6 20 5 0 12 -7 15 -16z m-2253 -48 c-4 -6 -11 -18 -14 -26 -3 -8 -5 -3 -4 11
1 14 7 26 14 26 8 0 9 -5 4 -11z m2253 -91 c1 -87 -12 -133 -29 -105 -5 8 -4
11 2 7 13 -8 14 163 1 180 -6 8 -4 11 8 9 15 -2 17 -15 18 -91z m-2253 11 c-4
-6 -11 -18 -14 -26 -3 -8 -5 -3 -4 11 1 14 7 26 14 26 8 0 9 -5 4 -11z m0 -80
c-10 -12 -6 -69 5 -89 5 -8 2 -7 -7 1 -18 16 -20 99 -2 99 8 0 9 -4 4 -11z
m116 -109 c-4 -13 -37 -18 -37 -5 0 6 7 7 16 4 12 -5 15 -2 10 9 -3 10 -2 13
5 10 5 -4 8 -12 6 -18z m102 15 c13 10 14 10 4 -2 -17 -19 -40 -21 -40 -4 0
10 4 11 10 5 7 -7 16 -7 26 1z m55 -22 c-6 -6 -10 -3 -10 10 0 13 4 16 10 10
7 -7 7 -13 0 -20z m105 22 c13 10 14 10 4 -2 -17 -19 -40 -21 -40 -4 0 10 4
11 10 5 7 -7 16 -7 26 1z m55 -22 c-6 -6 -10 -3 -10 10 0 13 4 16 10 10 7 -7
7 -13 0 -20z m105 22 c13 10 14 10 4 -2 -17 -19 -40 -21 -40 -4 0 10 4 11 10
5 7 -7 16 -7 26 1z m55 -22 c-6 -6 -10 -3 -10 10 0 13 4 16 10 10 7 -7 7 -13
0 -20z m105 22 c13 10 14 10 4 -2 -17 -19 -40 -21 -40 -4 0 10 4 11 10 5 7 -7
16 -7 26 1z m55 -22 c-6 -6 -10 -3 -10 10 0 13 4 16 10 10 7 -7 7 -13 0 -20z
m105 22 c13 10 14 10 4 -2 -17 -19 -40 -21 -40 -4 0 10 4 11 10 5 7 -7 16 -7
26 1z m55 -22 c-6 -6 -10 -3 -10 10 0 13 4 16 10 10 7 -7 7 -13 0 -20z m33 15
c0 -8 -4 -12 -9 -9 -5 3 -6 10 -3 15 9 13 12 11 12 -6z m72 8 c9 7 8 2 -3 -11
-20 -23 -28 -22 -32 5 -2 11 0 13 8 5 9 -9 16 -8 27 1z m59 -18 c-3 -3 -9 2
-12 12 -6 14 -5 15 5 6 7 -7 10 -15 7 -18z m-24 -6 c-3 -5 -10 -7 -15 -3 -5 3
-7 10 -3 15 3 5 10 7 15 3 5 -3 7 -10 3 -15z m257 2 c0 11 2 11 6 0 5 -11 7
-11 14 0 7 11 9 11 9 1 0 -7 4 -11 8 -8 4 2 9 -5 9 -17 2 -19 1 -20 -8 -5 -5
10 -18 15 -29 13 -13 -3 -24 4 -31 18 -10 21 -10 21 5 3 12 -15 16 -16 17 -5z
m942 -27 c-6 -16 -13 -13 -17 8 -1 7 -6 20 -11 28 -5 10 -1 8 13 -3 11 -11 18
-25 15 -33z m-807 -50 c1 -9 0 -13 -4 -10 -3 4 -7 14 -8 22 -1 9 0 13 4 10 3
-4 7 -14 8 -22z m791 11 c0 -8 -4 -12 -9 -9 -5 3 -6 10 -3 15 9 13 12 11 12
-6z m-831 -154 c23 19 16 4 -10 -20 -22 -20 -24 -21 -21 -5 2 11 4 24 5 29 1
6 4 4 7 -3 4 -10 8 -10 19 -1z m825 -118 c13 -16 12 -17 -3 -4 -17 13 -22 21
-14 21 2 0 10 -8 17 -17z m4 -62 c-3 -5 -1 -13 5 -16 8 -5 8 -11 1 -19 -6 -7
-7 -17 -3 -21 4 -5 1 -5 -6 -1 -10 6 -10 11 -2 21 8 9 8 15 0 20 -10 6 -5 25
6 25 3 0 3 -4 -1 -9z m6 -95 c-6 -7 -7 -17 -3 -21 4 -5 1 -5 -6 -1 -9 6 -10
11 -3 20 6 7 7 17 3 21 -4 5 -1 5 6 1 9 -6 10 -11 3 -20z m-3 -42 c-4 -3 0
-17 7 -31 14 -27 11 -48 -5 -38 -5 3 -7 12 -3 20 3 9 0 21 -6 29 -10 11 -6 26
7 26 3 0 3 -3 0 -6z m8 -110 c1 -9 -1 -13 -4 -9 -4 4 -7 10 -7 13 0 4 -4 14
-9 22 -7 12 -6 13 4 3 8 -7 15 -20 16 -29z m-7 -27 c8 -10 7 -14 -2 -14 -8 0
-14 6 -14 14 0 7 1 13 2 13 2 0 8 -6 14 -13z m-1325 -43 c3 -8 2 -12 -4 -9 -6
3 -10 1 -10 -6 0 -7 -2 -10 -5 -7 -5 5 4 38 10 38 2 0 6 -7 9 -16z m1331 5
c11 -16 1 -19 -13 -3 -7 8 -8 14 -3 14 5 0 13 -5 16 -11z m-1478 -149 c-2 -11
-6 -22 -9 -26 -4 -3 -5 2 -3 13 2 10 4 21 4 26 1 4 3 7 6 7 3 0 4 -9 2 -20z
m-300 -305 c0 -8 -4 -12 -8 -10 -10 7 -30 -20 -21 -29 4 -4 0 -6 -8 -4 -8 2
-14 -3 -12 -10 1 -8 -2 -11 -9 -6 -9 5 -10 2 -6 -9 3 -9 3 -19 -2 -21 -4 -3
-8 3 -8 12 0 12 62 92 72 92 1 0 2 -7 2 -15z m1758 -65 c1 -11 -4 -25 -11 -31
-10 -8 -12 -6 -8 13 3 12 6 29 6 36 2 18 12 5 13 -18z m-1931 -106 c4 -10 2
-13 -6 -8 -8 5 -9 1 -4 -12 5 -14 4 -16 -4 -8 -6 6 -8 18 -4 27 8 21 10 21 18
1z m1912 -1 c-3 -19 -19 -21 -21 -2 -2 9 3 16 10 16 7 0 12 -6 11 -14z m-35
-20 c13 -16 12 -17 -3 -4 -10 7 -18 15 -18 17 0 8 8 3 21 -13z m-24 -126 c1
-11 1 -18 0 -16 -2 2 -8 11 -15 20 -9 12 -9 16 1 16 7 0 14 -9 14 -20z m-2091
-95 c-17 -16 -18 -16 -5 5 7 12 15 20 18 17 3 -2 -3 -12 -13 -22z m2031 -50
c-10 -10 -17 -23 -17 -29 0 -6 -7 -17 -16 -24 -9 -7 -20 -22 -25 -34 -7 -17
-8 -17 -6 7 1 15 4 25 8 22 10 -6 30 22 32 45 0 11 4 18 8 15 4 -2 10 0 14 6
3 5 9 10 12 10 3 0 -1 -8 -10 -18z m-2090 -157 c0 -8 -4 -12 -9 -9 -4 3 -8 9
-8 15 0 5 4 9 8 9 5 0 9 -7 9 -15z m1820 -125 c2 -23 -13 -35 -23 -19 -5 8 -3
9 6 4 10 -6 12 -4 7 7 -3 9 -3 19 0 22 9 8 9 8 10 -14z m-100 -82 c-3 -8 -6
-5 -6 6 -1 11 2 17 5 13 3 -3 4 -12 1 -19z m-377 -109 c-6 -10 -13 -19 -16
-19 -2 0 0 8 5 19 6 10 7 22 3 26 -4 5 -1 5 6 1 9 -5 9 -12 2 -27z m60 27 c0
-2 -6 -9 -14 -15 -11 -9 -16 -9 -22 0 -4 7 -3 9 4 5 6 -3 13 -2 17 4 6 10 15
14 15 6z m23 -9 c3 -8 -1 -14 -8 -14 -7 0 -11 6 -8 14 3 7 6 13 8 13 2 0 5 -6
8 -13z m-1382 -34 c-12 -20 -14 -14 -5 12 4 9 9 14 11 11 3 -2 0 -13 -6 -23z
m806 20 c-4 -3 -2 -12 5 -20 6 -7 8 -16 4 -20 -3 -3 -6 0 -6 8 0 12 -2 11 -10
-1 -8 -11 -9 -9 -6 10 6 32 5 30 13 30 3 0 3 -3 0 -7z m-758 -37 c-3 -3 -11 5
-18 17 -13 21 -12 21 5 5 10 -10 16 -20 13 -22z m833 12 c-6 -23 -8 -23 -14 0
-3 11 0 19 7 19 7 0 10 -8 7 -19z m305 0 c-3 -8 -6 -5 -6 6 -1 11 2 17 5 13 3
-3 4 -12 1 -19z m-1114 -3 c-3 -9 -8 -14 -10 -11 -3 3 -2 9 2 15 9 16 15 13 8
-4z m140 -2 c-3 -7 -6 -13 -8 -13 -2 0 -5 6 -8 13 -3 8 1 14 8 14 7 0 11 -6 8
-14z m64 2 c0 -6 -10 -11 -21 -12 -12 -1 -15 1 -8 4 6 3 10 8 8 12 -3 4 1 8 8
8 7 0 13 -5 13 -12z m120 0 c0 -6 -10 -11 -21 -12 -12 -1 -15 1 -8 4 6 3 10 8
8 12 -3 4 1 8 8 8 7 0 13 -5 13 -12z m255 -4 c-4 -11 -7 -11 -10 -3 -3 10 -7
10 -18 1 -8 -6 -14 -8 -14 -4 0 4 -7 2 -15 -5 -8 -7 -15 -11 -16 -9 -7 34 -6
35 36 35 34 0 41 -4 37 -15z m125 3 c0 -13 -15 -13 -34 -1 -8 5 -13 3 -14 -5
0 -10 -2 -10 -6 1 -4 10 -7 10 -13 1 -5 -9 -9 -8 -12 2 -4 10 5 14 36 14 26 0
43 -5 43 -12z m200 -6 c-3 -8 -6 -5 -6 6 -1 11 2 17 5 13 3 -3 4 -12 1 -19z
m-787 -2 c0 -3 -4 -8 -10 -11 -5 -3 -10 -1 -10 4 0 6 5 11 10 11 6 0 10 -2 10
-4z m240 -6 c0 -5 -2 -10 -4 -10 -3 0 -8 5 -11 10 -3 6 -1 10 4 10 6 0 11 -4
11 -10z"/>
<path d="M7045 4041 c-3 -5 -1 -12 5 -16 5 -3 10 1 10 9 0 18 -6 21 -15 7z"/>
<path d="M4724 4760 c0 -140 2 -198 3 -127 2 70 2 184 0 255 -1 70 -3 12 -3
-128z"/>
<path d="M6550 4966 c0 -2 7 -7 16 -10 8 -3 12 -2 9 4 -6 10 -25 14 -25 6z"/>
<path d="M6680 4812 c0 -4 16 -23 35 -42 19 -19 35 -29 35 -22 0 7 -5 12 -11
12 -5 0 -7 6 -3 13 4 6 4 9 -1 5 -4 -4 -19 4 -32 18 -12 14 -23 21 -23 16z"/>
<path d="M4351 4044 c0 -11 3 -14 6 -6 3 7 2 16 -1 19 -3 4 -6 -2 -5 -13z"/>
<path d="M4030 3719 c0 -5 5 -7 10 -4 6 3 10 8 10 11 0 2 -4 4 -10 4 -5 0 -10
-5 -10 -11z"/>
<path d="M3939 3643 c-8 -9 -9 -14 -2 -10 6 4 13 2 15 -5 3 -9 6 -9 12 0 4 7
2 12 -4 12 -6 0 -8 5 -5 10 10 16 -1 11 -16 -7z"/>
<path d="M3850 3542 c0 -7 -5 -11 -12 -9 -7 1 -12 -5 -13 -13 0 -8 -7 -14 -15
-12 -11 3 -10 -1 3 -16 9 -10 17 -24 17 -31 0 -7 -8 -3 -18 9 -14 18 -19 19
-19 7 0 -9 5 -13 10 -10 7 4 8 -1 3 -13 -4 -10 -4 -15 0 -11 4 4 15 1 23 -7
15 -14 16 -10 15 32 0 26 4 53 9 60 5 7 7 15 3 19 -3 3 -6 1 -6 -5z m-13 -47
c0 -8 -4 -12 -9 -9 -5 3 -6 10 -3 15 9 13 12 11 12 -6z"/>
<path d="M4205 3439 c-4 -5 -4 -13 -1 -16 3 -4 6 0 6 8 0 11 2 11 10 -1 6 -9
10 -10 10 -3 0 17 -17 25 -25 12z"/>
<path d="M4265 3439 c-4 -5 -4 -13 -1 -16 3 -4 6 0 6 8 0 11 2 11 10 -1 6 -9
10 -10 10 -3 0 17 -17 25 -25 12z"/>
<path d="M4325 3439 c-4 -5 -4 -13 -1 -16 3 -4 6 0 6 8 0 11 2 11 10 -1 6 -9
10 -10 10 -3 0 17 -17 25 -25 12z"/>
<path d="M4385 3439 c-4 -5 -4 -13 -1 -16 3 -4 6 0 6 8 0 11 2 11 10 -1 6 -9
10 -10 10 -3 0 17 -17 25 -25 12z"/>
<path d="M4445 3439 c-4 -5 -4 -13 -1 -16 3 -4 6 0 6 8 0 11 2 11 10 -1 6 -9
10 -10 10 -3 0 17 -17 25 -25 12z"/>
<path d="M4066 3432 c-3 -5 1 -9 9 -9 8 0 12 4 9 9 -3 4 -7 8 -9 8 -2 0 -6 -4
-9 -8z"/>
<path d="M4126 3432 c-3 -5 1 -9 9 -9 8 0 12 4 9 9 -3 4 -7 8 -9 8 -2 0 -6 -4
-9 -8z"/>
<path d="M4711 3404 c0 -11 3 -14 6 -6 3 7 2 16 -1 19 -3 4 -6 -2 -5 -13z"/>
<path d="M3630 3351 c0 -6 5 -13 12 -17 7 -5 233 -9 503 -10 269 -1 498 -3
508 -3 10 -1 29 -12 42 -26 l25 -24 2 -563 c1 -310 3 -520 5 -468 2 52 4 326
5 607 l3 512 -552 1 c-344 0 -553 -3 -553 -9z"/>
<path d="M4874 2216 c0 -13 4 -22 9 -19 10 6 9 31 -2 37 -5 3 -8 -5 -7 -18z"/>
<path d="M6139 2013 c-13 -16 -12 -17 4 -4 16 13 21 21 13 21 -2 0 -10 -8 -17
-17z"/>
<path d="M6133 1918 c-2 -18 0 -20 7 -8 12 18 13 30 2 30 -4 0 -9 -10 -9 -22z"/>
<path d="M6105 1901 c-3 -12 -11 -19 -16 -16 -5 3 -6 -2 -2 -11 4 -12 3 -15
-5 -10 -7 4 -12 1 -12 -9 0 -9 5 -13 10 -10 14 8 43 66 37 72 -3 2 -8 -5 -12
-16z"/>
<path d="M5950 1741 c0 -7 -4 -10 -8 -7 -4 2 -9 -5 -9 -16 -2 -21 -2 -21 14 1
8 12 12 25 9 28 -3 4 -6 1 -6 -6z"/>
<path d="M5890 1681 c0 -7 -4 -10 -8 -7 -4 2 -9 -5 -9 -16 -2 -21 -2 -21 14 1
8 12 12 25 9 28 -3 4 -6 1 -6 -6z"/>
<path d="M5551 1334 c0 -11 3 -14 6 -6 3 7 2 16 -1 19 -3 4 -6 -2 -5 -13z"/>
<path d="M7078 1323 c6 -2 9 -10 6 -15 -4 -7 -2 -8 5 -4 13 9 5 26 -12 25 -9
0 -8 -2 1 -6z"/>
<path d="M5510 1301 c0 -7 -5 -9 -10 -6 -6 4 -9 1 -8 -7 2 -7 -3 -12 -9 -10
-7 1 -12 -4 -10 -10 1 -7 -3 -12 -8 -11 -6 1 -11 -7 -12 -17 -1 -14 8 -8 34
21 20 22 33 42 29 46 -3 3 -6 1 -6 -6z"/>
<path d="M7070 1275 c0 -8 2 -15 4 -15 2 0 6 7 10 15 3 8 1 15 -4 15 -6 0 -10
-7 -10 -15z"/>
<path d="M7069 1248 c-1 -2 -3 -37 -4 -78 -2 -41 -4 -75 -5 -75 -7 0 -6 -36 1
-41 5 -3 6 -10 3 -16 -4 -6 -2 -8 4 -4 6 3 9 18 6 31 -2 14 1 35 7 46 8 15 8
19 0 15 -6 -4 -11 0 -11 9 0 9 4 14 8 11 4 -2 8 15 8 40 0 24 -5 44 -11 44 -5
0 -3 5 5 10 10 6 11 10 3 10 -7 0 -14 -1 -14 -2z"/>
<path d="M5410 1201 c0 -7 -4 -10 -8 -7 -4 2 -9 -5 -9 -16 -2 -21 -2 -21 14 1
8 12 12 25 9 28 -3 4 -6 1 -6 -6z"/>
<path d="M5070 861 c0 -7 -5 -9 -10 -6 -6 4 -9 1 -8 -7 2 -7 -3 -12 -9 -10 -7
1 -12 -4 -10 -10 1 -7 -4 -12 -10 -10 -7 1 -12 -4 -10 -10 1 -7 -3 -12 -8 -11
-6 1 -11 -7 -12 -17 -1 -12 13 -2 44 31 25 27 43 52 40 56 -4 3 -7 1 -7 -6z"/>
<path d="M4724 280 c0 -146 2 -205 3 -132 2 72 2 192 0 265 -1 72 -3 13 -3
-133z"/>
<path d="M6824 468 c-7 -12 -14 -48 -8 -48 9 0 32 50 25 55 -5 3 -13 0 -17 -7z"/>
<path d="M6571 244 c0 -11 3 -14 6 -6 3 7 2 16 -1 19 -3 4 -6 -2 -5 -13z"/>
<path d="M6005 100 c-4 -6 -3 -16 3 -22 6 -6 12 -6 17 2 4 6 3 16 -3 22 -6 6
-12 6 -17 -2z"/>
<path d="M6081 88 c-13 -20 -12 -22 1 -11 8 7 18 10 22 6 4 -4 4 0 0 10 -8 21
-6 21 -23 -5z"/>
<path d="M5711 84 c0 -11 3 -14 6 -6 3 7 2 16 -1 19 -3 4 -6 -2 -5 -13z"/>
<path d="M5773 83 c1 -17 4 -19 14 -11 7 6 13 16 13 22 0 6 -4 5 -9 -3 -7 -11
-9 -11 -14 0 -3 8 -4 4 -4 -8z"/>
<path d="M5807 81 c-4 -17 -3 -21 5 -13 5 5 8 16 6 23 -3 8 -7 3 -11 -10z"/>
<path d="M5913 90 c3 -16 21 -14 25 2 3 10 2 10 -6 -1 -7 -9 -11 -10 -15 -2
-4 7 -5 8 -4 1z"/>
<path d="M5540 81 c0 -6 4 -13 10 -16 6 -3 7 1 4 9 -7 18 -14 21 -14 7z"/>
</g>
</svg>
