<?xml version="1.0" encoding="UTF-8"?>
<!DOCTYPE svg PUBLIC "-//W3C//DTD SVG 1.1//EN" "http://www.w3.org/Graphics/SVG/1.1/DTD/svg11.dtd">
<svg xmlns="http://www.w3.org/2000/svg" version="1.1" width="256px" height="256px" style="shape-rendering:geometricPrecision; text-rendering:geometricPrecision; image-rendering:optimizeQuality; fill-rule:evenodd; clip-rule:evenodd" xmlns:xlink="http://www.w3.org/1999/xlink">
<g><path style="opacity:0.82" fill="#de6845" d="M 112.5,5.5 C 111.833,5.5 111.167,5.5 110.5,5.5C 109.566,4.43236 109.232,3.09903 109.5,1.5C 111.948,1.01011 113.615,1.84344 114.5,4C 114.164,5.02992 113.497,5.52992 112.5,5.5 Z"/></g>
<g><path style="opacity:0.376" fill="#6a6765" d="M 110.5,5.5 C 111.167,5.5 111.833,5.5 112.5,5.5C 112.5,9.5 112.5,13.5 112.5,17.5C 111.833,17.5 111.167,17.5 110.5,17.5C 110.5,13.5 110.5,9.5 110.5,5.5 Z"/></g>
<g><path style="opacity:0.736" fill="#da6846" d="M 110.5,17.5 C 111.167,17.5 111.833,17.5 112.5,17.5C 113.906,17.9731 114.573,18.9731 114.5,20.5C 113.662,20.8417 113.328,21.5084 113.5,22.5C 109.727,22.3427 108.727,20.676 110.5,17.5 Z"/></g>
<g><path style="opacity:0.711" fill="#dd6846" d="M 153.5,23.5 C 152.833,23.5 152.167,23.5 151.5,23.5C 148.492,19.9249 149.492,18.2582 154.5,18.5C 154.784,20.4147 154.451,22.0813 153.5,23.5 Z"/></g>
<g><path style="opacity:0.609" fill="#676463" d="M 114.5,20.5 C 117.167,23.8333 120.167,26.8333 123.5,29.5C 123.158,30.3382 122.492,30.6716 121.5,30.5C 118.5,28.1667 115.833,25.5 113.5,22.5C 113.328,21.5084 113.662,20.8417 114.5,20.5 Z"/></g>
<g><path style="opacity:0.723" fill="#dc6846" d="M 95.5,28.5 C 95.1667,28.5 94.8333,28.5 94.5,28.5C 91.4922,24.9249 92.4922,23.2582 97.5,23.5C 97.9227,25.7812 97.256,27.4479 95.5,28.5 Z"/></g>
<g><path style="opacity:0.376" fill="#666666" d="M 151.5,23.5 C 152.167,23.5 152.833,23.5 153.5,23.5C 153.5,26.8333 153.5,30.1667 153.5,33.5C 152.833,33.5 152.167,33.5 151.5,33.5C 151.5,30.1667 151.5,26.8333 151.5,23.5 Z"/></g>
<g><path style="opacity:0.736" fill="#da6846" d="M 123.5,29.5 C 124.5,29.5 125.5,29.5 126.5,29.5C 126.784,31.4147 126.451,33.0813 125.5,34.5C 124.833,34.5 124.167,34.5 123.5,34.5C 121.896,33.713 121.229,32.3797 121.5,30.5C 122.492,30.6716 123.158,30.3382 123.5,29.5 Z"/></g>
<g><path style="opacity:0.721" fill="#db6846" d="M 151.5,33.5 C 152.167,33.5 152.833,33.5 153.5,33.5C 154.451,34.9187 154.784,36.5853 154.5,38.5C 153.5,38.5 152.5,38.5 151.5,38.5C 151.158,37.6618 150.492,37.3284 149.5,37.5C 149.229,35.6203 149.896,34.287 151.5,33.5 Z"/></g>
<g><path style="opacity:0.376" fill="#686766" d="M 123.5,34.5 C 124.167,34.5 124.833,34.5 125.5,34.5C 125.5,42.5 125.5,50.5 125.5,58.5C 124.833,58.5 124.167,58.5 123.5,58.5C 123.5,50.5 123.5,42.5 123.5,34.5 Z"/></g>
<g><path style="opacity:0.495" fill="#676564" d="M 149.5,37.5 C 150.492,37.3284 151.158,37.6618 151.5,38.5C 148.5,41.1667 145.5,43.8333 142.5,46.5C 141.833,46.5 141.5,46.1667 141.5,45.5C 144.5,43.1667 147.167,40.5 149.5,37.5 Z"/></g>
<g><path style="opacity:0.747" fill="#bc6950" d="M 94.5,28.5 C 94.8333,28.5 95.1667,28.5 95.5,28.5C 95.0016,34.0886 95.6683,39.4219 97.5,44.5C 97.1667,45.1667 96.8333,45.8333 96.5,46.5C 92.5091,46.3522 91.6757,44.6855 94,41.5C 94.499,37.1794 94.6657,32.8461 94.5,28.5 Z"/></g>
<g><path style="opacity:0.518" fill="#686463" d="M 97.5,44.5 C 100.72,46.6029 103.72,48.9362 106.5,51.5C 106.5,52.1667 106.167,52.5 105.5,52.5C 102.5,50.5 99.5,48.5 96.5,46.5C 96.8333,45.8333 97.1667,45.1667 97.5,44.5 Z"/></g>
<g><path style="opacity:0.751" fill="#dd6846" d="M 141.5,45.5 C 141.5,46.1667 141.833,46.5 142.5,46.5C 142.5,47.8333 142.5,49.1667 142.5,50.5C 140.335,50.8841 138.668,50.2174 137.5,48.5C 138.077,46.4501 139.41,45.4501 141.5,45.5 Z"/></g>
<g><path style="opacity:0.841" fill="#dd6845" d="M 106.5,51.5 C 109.68,51.1762 110.847,52.5096 110,55.5C 109.617,56.056 109.117,56.3893 108.5,56.5C 108.158,55.6618 107.492,55.3284 106.5,55.5C 105.596,54.791 105.263,53.791 105.5,52.5C 106.167,52.5 106.5,52.1667 106.5,51.5 Z"/></g>
<g><path style="opacity:0.376" fill="#6d6765" d="M 106.5,55.5 C 107.492,55.3284 108.158,55.6618 108.5,56.5C 108.5,58.8333 108.5,61.1667 108.5,63.5C 107.833,63.5 107.167,63.5 106.5,63.5C 106.5,60.8333 106.5,58.1667 106.5,55.5 Z"/></g>
<g><path style="opacity:0.817" fill="#de6846" d="M 123.5,58.5 C 124.167,58.5 124.833,58.5 125.5,58.5C 126.434,59.5676 126.768,60.901 126.5,62.5C 124.856,62.7135 123.356,62.3802 122,61.5C 121.415,60.0024 121.915,59.0024 123.5,58.5 Z"/></g>
<g><path style="opacity:0.715" fill="#dd6845" d="M 106.5,63.5 C 107.167,63.5 107.833,63.5 108.5,63.5C 111.508,67.0751 110.508,68.7418 105.5,68.5C 105.216,66.5853 105.549,64.9187 106.5,63.5 Z"/></g>
<g><path style="opacity:0.984" fill="#ea724e" d="M 165.5,78.5 C 164.833,78.5 164.167,78.5 163.5,78.5C 162.833,78.5 162.5,78.8333 162.5,79.5C 161.167,79.5 159.833,79.5 158.5,79.5C 157.508,79.3284 156.842,79.6618 156.5,80.5C 154.5,80.5 152.5,80.5 150.5,80.5C 148.265,80.2053 146.265,80.5386 144.5,81.5C 141.833,81.5 139.167,81.5 136.5,81.5C 131.5,81.5 126.5,81.5 121.5,81.5C 115.167,81.5 108.833,81.5 102.5,81.5C 102.5,80.8333 102.167,80.5 101.5,80.5C 94.7585,80.4889 88.0918,79.8222 81.5,78.5C 81.281,77.325 81.6143,76.325 82.5,75.5C 84.444,74.8108 86.444,74.3108 88.5,74C 111.502,72.0138 134.502,72.0138 157.5,74C 159.891,74.2868 162.224,74.7868 164.5,75.5C 165.386,76.325 165.719,77.325 165.5,78.5 Z"/></g>
<g><path style="opacity:0.991" fill="#2e619c" d="M 81.5,78.5 C 88.0918,79.8222 94.7585,80.4889 101.5,80.5C 102.167,80.5 102.5,80.8333 102.5,81.5C 108.833,81.5 115.167,81.5 121.5,81.5C 117.61,87.9643 114.777,94.9643 113,102.5C 112.333,107.833 112.333,113.167 113,118.5C 119.781,141.012 128.614,162.678 139.5,183.5C 135.22,192.722 130.387,201.722 125,210.5C 124.333,213.833 124.333,217.167 125,220.5C 127.512,224.861 130.012,229.194 132.5,233.5C 100.832,233.667 69.1649,233.5 37.5,233C 34.0976,231.6 31.2643,229.433 29,226.5C 26.6667,222.5 24.3333,218.5 22,214.5C 21.3333,211.833 21.3333,209.167 22,206.5C 45.8375,166.156 64.3375,123.49 77.5,78.5C 78.8333,78.5 80.1667,78.5 81.5,78.5 Z"/></g>
<g><path style="opacity:0.989" fill="#3a78c0" d="M 163.5,78.5 C 164.167,78.5 164.833,78.5 165.5,78.5C 167.017,78.5106 168.184,79.1772 169,80.5C 176.775,111.359 189.275,140.026 206.5,166.5C 187.659,166.17 168.993,166.503 150.5,167.5C 147.167,172.5 143.833,177.5 140.5,182.5C 131.575,163.309 123.741,143.642 117,123.5C 113.894,109.249 116.227,95.9158 124,83.5C 128.268,82.8599 132.435,82.1933 136.5,81.5C 139.167,81.5 141.833,81.5 144.5,81.5C 146.735,81.7947 148.735,81.4614 150.5,80.5C 152.5,80.5 154.5,80.5 156.5,80.5C 157.492,80.6716 158.158,80.3382 158.5,79.5C 159.833,79.5 161.167,79.5 162.5,79.5C 163.167,79.5 163.5,79.1667 163.5,78.5 Z"/></g>
<g><path style="opacity:1" fill="#c3d2e5" d="M 150.5,167.5 C 168.993,166.503 187.659,166.17 206.5,166.5C 206.672,167.492 206.338,168.158 205.5,168.5C 187.341,167.503 169.008,167.17 150.5,167.5 Z"/></g>
<g><path style="opacity:0.993" fill="#eaecef" d="M 150.5,167.5 C 169.008,167.17 187.341,167.503 205.5,168.5C 204.91,169.766 204.41,171.099 204,172.5C 186.898,171.176 169.731,171.176 152.5,172.5C 148.68,178.472 145.68,184.805 143.5,191.5C 142.5,191.833 141.833,192.5 141.5,193.5C 137.003,200.488 133.003,207.822 129.5,215.5C 132.005,221.182 135.005,226.516 138.5,231.5C 138.5,232.167 138.833,232.5 139.5,232.5C 139.5,232.833 139.5,233.167 139.5,233.5C 139.5,233.833 139.5,234.167 139.5,234.5C 137.5,234.5 135.5,234.5 133.5,234.5C 132.833,234.5 132.5,234.167 132.5,233.5C 130.012,229.194 127.512,224.861 125,220.5C 124.333,217.167 124.333,213.833 125,210.5C 130.387,201.722 135.22,192.722 139.5,183.5C 140.167,183.5 140.5,183.167 140.5,182.5C 143.833,177.5 147.167,172.5 150.5,167.5 Z"/></g>
<g><path style="opacity:0.987" fill="#3a78c1" d="M 206.5,166.5 C 215.743,182.648 224.743,198.981 233.5,215.5C 227.105,227.956 220.438,240.289 213.5,252.5C 210.894,253.652 208.227,253.818 205.5,253C 212.898,240.37 219.898,227.536 226.5,214.5C 219.272,200.601 211.606,186.934 203.5,173.5C 193.532,190.631 183.366,207.631 173,224.5C 170.5,227 168,229.5 165.5,232C 156.942,233.441 148.276,233.941 139.5,233.5C 139.5,233.167 139.5,232.833 139.5,232.5C 144.127,225.688 146.461,218.021 146.5,209.5C 146.056,203.385 145.056,197.385 143.5,191.5C 145.68,184.805 148.68,178.472 152.5,172.5C 169.731,171.176 186.898,171.176 204,172.5C 204.41,171.099 204.91,169.766 205.5,168.5C 206.338,168.158 206.672,167.492 206.5,166.5 Z"/></g>
<g><path style="opacity:0.97" fill="#32639d" d="M 141.5,193.5 C 143.46,202.025 143.96,210.691 143,219.5C 142.174,223.818 140.674,227.818 138.5,231.5C 135.005,226.516 132.005,221.182 129.5,215.5C 133.003,207.822 137.003,200.488 141.5,193.5 Z"/></g>
<g><path style="opacity:0.905" fill="#3a78c0" d="M 133.5,234.5 C 135.5,234.5 137.5,234.5 139.5,234.5C 143.266,240.521 146.933,246.687 150.5,253C 147.653,253.944 145.153,253.444 143,251.5C 139.302,246.102 136.136,240.435 133.5,234.5 Z"/></g>
</svg>
