<?xml version="1.0" ?><svg height="48" id="svg8" version="1.1" viewBox="0 0 12.7 12.7" width="48" xmlns="http://www.w3.org/2000/svg" xmlns:cc="http://creativecommons.org/ns#" xmlns:dc="http://purl.org/dc/elements/1.1/" xmlns:inkscape="http://www.inkscape.org/namespaces/inkscape" xmlns:rdf="http://www.w3.org/1999/02/22-rdf-syntax-ns#" xmlns:sodipodi="http://sodipodi.sourceforge.net/DTD/sodipodi-0.dtd" xmlns:svg="http://www.w3.org/2000/svg"><defs id="defs2"><clipPath clipPathUnits="userSpaceOnUse" id="clipPath5343"><path d="m 3.0688351,285.55677 c -1.613568,1.19596 -2.5662181,3.08478 -2.56883509,5.09323 0,3.50701 2.84299219,6.35 6.35000009,6.35 C 10.357008,297 13.2,294.15701 13.2,290.65 c -0.0022,-0.84296 -0.452078,-2.71271 -0.500228,-2.45359 -0.02424,0.84121 -0.571809,2.35322 -0.602031,2.23138 -0.0026,-0.50621 -0.2876,-1.42626 -0.305098,-1.19509 0.02804,1.40695 -1.48374,3.17677 -2.3076623,3.50038 -0.8310457,0.36942 -1.7371637,0.56412 -2.6117267,0.56534 -0.1736918,2e-5 -1.1686519,-0.13807 -1.6443439,-0.70435 -0.826376,-0.89253 -0.00201,-1.09994 0.4625039,-1.27331 0.5055862,-0.18871 1.030887,-0.30969 1.5203212,-0.42013 0.7456988,-0.16826 0.4710618,-0.52626 0.1049028,-0.6289 -0.9266939,-0.25976 -2.044886,0.33543 -2.8654579,0.30593 -0.848406,-0.0291 -0.804618,-1.69621 -0.1405601,-1.76217 0.7394212,-0.0734 1.6665151,-0.51079 1.461779,-0.65673 -0.8303549,-0.61672 -0.9617369,-0.79081 -1.0595549,-1.16418 -0.1480201,-0.565 0.341282,-1.03557 0.05777,-0.96356 -0.2596169,0.08 -0.4110678,0.15641 -0.5988619,0.25715 -0.1672929,0.0897 -0.293814,0.0546 -0.6751841,0.002 -0.3249449,-0.045 -0.3870058,-0.0557 -0.3755009,-0.25673 0.0115,-0.20097 0.07295,-0.52125 -0.05223,-0.47648 z" id="path5345" style="fill:#7aafff;fill-opacity:1;stroke:none;stroke-width:2.01045942;stroke-linecap:round;stroke-linejoin:round;stroke-miterlimit:4;stroke-dasharray:none;stroke-opacity:1"/></clipPath><clipPath clipPathUnits="userSpaceOnUse" id="clipPath4543"><path d="m 1.7760088,291.5696 c -1.82613339,0.17434 -3.2940315,0.91934 -3.4903996,2.16451 -0.2629054,1.66729 1.5678591,3.34127 4.0891213,3.73893 1.2172084,0.19119 2.434234,0.053 3.3807423,-0.38387 0.7310194,0.5283 1.669357,0.90078 2.6704721,1.06008 2.5212691,0.39771 4.7783381,-0.6315 5.0412801,-2.2988 0.262905,-1.6673 -1.490667,-1.94329 -4.257163,-2.17938 -2.7664958,-0.23609 -3.6163896,-1.68839 -5.7470448,-2.04575 -0.5660191,-0.0893 -1.1380808,-0.10817 -1.6870084,-0.0557 z" id="path4545" style="opacity:1;vector-effect:none;fill:#666666;fill-opacity:1;stroke:none;stroke-width:2.11666656;stroke-linecap:round;stroke-linejoin:round;stroke-miterlimit:4;stroke-dasharray:none;stroke-dashoffset:0;stroke-opacity:1"/></clipPath><clipPath clipPathUnits="userSpaceOnUse" id="clipPath5343-7"><path d="m 3.0688351,285.55677 c -1.613568,1.19596 -2.5662181,3.08478 -2.56883509,5.09323 0,3.50701 2.84299219,6.35 6.35000009,6.35 C 10.357008,297 13.2,294.15701 13.2,290.65 c -0.0022,-0.84296 -0.452078,-2.71271 -0.500228,-2.45359 -0.02424,0.84121 -0.571809,2.35322 -0.602031,2.23138 -0.0026,-0.50621 -0.2876,-1.42626 -0.305098,-1.19509 0.02804,1.40695 -1.48374,3.17677 -2.3076623,3.50038 -0.8310457,0.36942 -1.7371637,0.56412 -2.6117267,0.56534 -0.1736918,2e-5 -1.1686519,-0.13807 -1.6443439,-0.70435 -0.826376,-0.89253 -0.00201,-1.09994 0.4625039,-1.27331 0.5055862,-0.18871 1.030887,-0.30969 1.5203212,-0.42013 0.7456988,-0.16826 0.4710618,-0.52626 0.1049028,-0.6289 -0.9266939,-0.25976 -2.044886,0.33543 -2.8654579,0.30593 -0.848406,-0.0291 -0.804618,-1.69621 -0.1405601,-1.76217 0.7394212,-0.0734 1.6665151,-0.51079 1.461779,-0.65673 -0.8303549,-0.61672 -0.9617369,-0.79081 -1.0595549,-1.16418 -0.1480201,-0.565 0.341282,-1.03557 0.05777,-0.96356 -0.2596169,0.08 -0.4110678,0.15641 -0.5988619,0.25715 -0.1672929,0.0897 -0.293814,0.0546 -0.6751841,0.002 -0.3249449,-0.045 -0.3870058,-0.0557 -0.3755009,-0.25673 0.0115,-0.20097 0.07295,-0.52125 -0.05223,-0.47648 z" id="path5345-5" style="fill:#7aafff;fill-opacity:1;stroke:none;stroke-width:2.01045942;stroke-linecap:round;stroke-linejoin:round;stroke-miterlimit:4;stroke-dasharray:none;stroke-opacity:1"/></clipPath><clipPath clipPathUnits="userSpaceOnUse" id="clipPath4543-3"><path d="m 1.7760088,291.5696 c -1.82613339,0.17434 -3.2940315,0.91934 -3.4903996,2.16451 -0.2629054,1.66729 1.5678591,3.34127 4.0891213,3.73893 1.2172084,0.19119 2.434234,0.053 3.3807423,-0.38387 0.7310194,0.5283 1.669357,0.90078 2.6704721,1.06008 2.5212691,0.39771 4.7783381,-0.6315 5.0412801,-2.2988 0.262905,-1.6673 -1.490667,-1.94329 -4.257163,-2.17938 -2.7664958,-0.23609 -3.6163896,-1.68839 -5.7470448,-2.04575 -0.5660191,-0.0893 -1.1380808,-0.10817 -1.6870084,-0.0557 z" id="path4545-5" style="opacity:1;vector-effect:none;fill:#666666;fill-opacity:1;stroke:none;stroke-width:2.11666656;stroke-linecap:round;stroke-linejoin:round;stroke-miterlimit:4;stroke-dasharray:none;stroke-dashoffset:0;stroke-opacity:1"/></clipPath></defs><g id="layer1" transform="translate(0,-284.3)"><path d="m 6.4849027,284.3072 v 2.08411 c 0.0023,0.024 0.00124,0.0482 -0.0031,0.0718 -0.00119,0.008 -0.00275,0.0156 -0.00465,0.0233 -1.659e-4,0.001 -3.44e-4,0.002 -5.292e-4,0.003 -0.016722,0.0634 -0.056768,0.11826 -0.1121378,0.15348 l -2.7383211,2.46186 h 2.6825236 c 0.013989,-0.003 0.028161,-0.004 0.042375,-0.004 0.075855,-8.3e-4 0.1483061,0.0314 0.1984375,0.0884 0.00193,0.002 0.00382,0.003 0.00568,0.005 5.292e-4,6.9e-4 0.00103,0.001 0.00156,0.002 0.049934,0.0585 0.071494,0.13601 0.058911,0.21187 v 2.27325 h 3.1155722 c 0.00429,-8e-4 0.0086,-10e-4 0.01292,-0.002 0.1303943,-0.01 0.2479968,0.0782 0.2749191,0.20619 v 5.3e-4 c 0.001,0.005 0.0019,0.01 0.0026,0.0145 10e-4,0.007 0.0017,0.0148 0.0021,0.0222 1.83e-4,0.001 3.44e-4,0.003 5.29e-4,0.004 3.7e-4,0.008 3.7e-4,0.0162 0,0.0243 3e-6,6.8e-4 3e-6,0.001 0,0.002 -0.0034,0.0821 -0.045384,0.15772 -0.1131721,0.20412 l -3.1631427,2.84477 v 1.98438 c 3.3453488,-0.21004 5.9513138,-2.98411 5.9520918,-6.33605 -0.0029,-3.45239 -2.7635105,-6.26995 -6.2151246,-6.34328 z" id="path4514-36" style="fill:#ffac76;fill-opacity:1;stroke:none;stroke-width:1.74658811;stroke-linecap:round;stroke-linejoin:round;stroke-miterlimit:4;stroke-dasharray:none;stroke-opacity:1"/><path d="m 5.9648994,284.31438 c -3.350241,0.20377 -5.963309,2.97962 -5.964493,6.33605 0.0027,3.45692 2.770221,6.27656 6.226493,6.3438 v -2.08308 c -0.0037,-0.0398 0.0018,-0.0799 0.01602,-0.11731 0.01712,-0.0463 0.04705,-0.0868 0.0863,-0.11678 l 2.753319,-2.47427 h -2.684591 c -0.03505,0.006 -0.07093,0.004 -0.10542,-0.004 -0.0036,-7.9e-4 -0.0073,-0.002 -0.01085,-0.003 -0.148745,-0.0355 -0.235201,-0.19074 -0.187069,-0.3359 v -2.23447 h -3.087148 c -0.150142,0.0416 -0.30303,-0.0569 -0.327112,-0.21084 -0.02221,-0.11364 0.03313,-0.22832 0.135909,-0.28164 l 3.148645,-2.83084 z" id="path4514-36-6" style="fill:#999999;fill-opacity:1;stroke:none;stroke-width:1.74658811;stroke-linecap:round;stroke-linejoin:round;stroke-miterlimit:4;stroke-dasharray:none;stroke-opacity:1"/><path d="m 6.3504094,284.30011 a 6.3499999,6.3499999 0 0 0 -0.385507,0.014 v 1.98799 l -3.1481262,2.83084 a 0.26090676,0.26090676 0 0 0 -0.1359087,0.28163 0.26059706,0.26059706 0 0 0 0.3271117,0.21084 h 3.0871482 v 2.23449 a 0.26090676,0.26090676 0 0 0 0.187069,0.3359 0.26090676,0.26090676 0 0 0 0.01085,0.003 0.26059706,0.26059706 0 0 0 0.104903,0.004 h 2.6851074 l -2.7533184,2.47426 a 0.26059706,0.26059706 0 0 0 -0.0863,0.11628 0.26094169,0.26094169 0 0 0 -0.01602,0.11782 v 2.08308 a 6.3499999,6.3499999 0 0 0 0.12299,0.006 6.3499999,6.3499999 0 0 0 0.3984247,-0.014 v -1.98437 l 3.1631117,-2.84479 a 0.26059706,0.26059706 0 0 0 0.1131722,-0.20412 0.26059706,0.26059706 0 0 0 0,-0.002 0.26059706,0.26059706 0 0 0 0,-0.0243 0.26059706,0.26059706 0 0 0 -5.17e-4,-0.004 0.26059706,0.26059706 0 0 0 -0.0021,-0.0222 0.26059706,0.26059706 0 0 0 -0.0026,-0.0145 0.26059706,0.26059706 0 0 0 0,-5.2e-4 0.26059706,0.26059706 0 0 0 -0.2749192,-0.20619 0.26059706,0.26059706 0 0 0 -0.01292,0.002 H 6.6164911 v -2.27324 a 0.26059706,0.26059706 0 0 0 -0.05891,-0.21188 0.26059706,0.26059706 0 0 0 -0.0016,-0.002 0.26059706,0.26059706 0 0 0 -0.0057,-0.005 0.26059706,0.26059706 0 0 0 -0.1984367,-0.0884 0.26059706,0.26059706 0 0 0 -0.04237,0.004 H 3.6269529 l 2.7383325,-2.46187 a 0.26059706,0.26059706 0 0 0 0.1121367,-0.15348 0.26059706,0.26059706 0 0 0 5.17e-4,-0.003 0.26059706,0.26059706 0 0 0 0.0047,-0.0232 0.26059706,0.26059706 0 0 0 0.0031,-0.0718 v -2.08411 a 6.3499999,6.3499999 0 0 0 -0.1353917,-0.007 z" id="path4514" style="fill:#ffffff;fill-opacity:1;stroke:none;stroke-width:1.74658811;stroke-linecap:round;stroke-linejoin:round;stroke-miterlimit:4;stroke-dasharray:none;stroke-opacity:1"/><path d="m 6.4848546,284.30678 v 5.2e-4 2.08411 c 0.0023,0.024 0.0012,0.0482 -0.0031,0.0718 -0.0012,0.008 -0.0028,0.0155 -0.0046,0.0232 -1.66e-4,0.001 -3.32e-4,0.002 -5.17e-4,0.003 -0.01672,0.0634 -0.05677,0.11825 -0.112138,0.15347 l -2.738335,2.46187 h 0.521415 l 2.516643,-2.26239 c 0.05537,-0.0352 0.09542,-0.09 0.112138,-0.15348 1.82e-4,-10e-4 3.58e-4,-0.002 5.17e-4,-0.003 0.0019,-0.008 0.0034,-0.0155 0.0047,-0.0233 0.0043,-0.0237 0.0054,-0.0473 0.0031,-0.0713 v -2.27066 c -0.09935,-0.007 -0.199144,-0.0118 -0.299723,-0.014 z m 0.165881,4.9935 c -0.01352,1.7e-4 -0.02698,0.002 -0.04031,0.004 0.0081,0.0337 0.01097,0.0689 0.0052,0.10387 v 2.27325 h 0.299724 v -2.07378 c 0.01259,-0.0759 -0.009,-0.15339 -0.05891,-0.21187 -5.3e-4,-6.6e-4 -10e-4,-0.001 -0.0016,-0.002 -0.0019,-0.002 -0.0038,-0.003 -0.0057,-0.005 -0.05012,-0.0569 -0.122578,-0.0892 -0.198438,-0.0884 z m 3.3930744,2.57865 c -0.0043,5.6e-4 -0.0086,10e-4 -0.01292,0.002 h -0.01395 c 3.94e-4,0.002 0.0017,0.003 0.0021,0.005 v 5.2e-4 c 10e-4,0.005 0.0019,0.01 0.0026,0.0145 0.001,0.007 0.0017,0.0148 0.0021,0.0222 1.83e-4,10e-4 3.32e-4,0.003 5.17e-4,0.004 3.7e-4,0.008 3.7e-4,0.0162 0,0.0243 3e-6,6.9e-4 3e-6,10e-4 0,0.002 -0.0034,0.0821 -0.04538,0.15772 -0.1131706,0.20412 l -3.1631148,2.84479 v 1.98437 c 0.100727,-0.006 0.200905,-0.0149 0.30024,-0.0258 v -1.75854 l 3.1631134,-2.84479 c 0.06779,-0.0464 0.109728,-0.12205 0.113172,-0.20412 3e-6,-6.6e-4 3e-6,-10e-4 0,-0.002 3.7e-4,-0.008 3.7e-4,-0.0162 0,-0.0243 -1.66e-4,-0.001 -3.31e-4,-0.003 -5.17e-4,-0.004 -3.7e-4,-0.007 -0.0016,-0.0148 -0.0026,-0.0222 -7.4e-4,-0.005 -0.0016,-0.01 -0.0026,-0.0145 v -5.2e-4 c -0.02692,-0.12798 -0.144522,-0.21618 -0.274918,-0.20619 z" id="path4514-36-1" style="fill:#ff924b;fill-opacity:1;stroke:none;stroke-width:1.74658811;stroke-linecap:round;stroke-linejoin:round;stroke-miterlimit:4;stroke-dasharray:none;stroke-opacity:1"/></g></svg>