<svg xmlns="http://www.w3.org/2000/svg" shape-rendering="geometricPrecision" text-rendering="geometricPrecision" image-rendering="optimizeQuality" fill-rule="evenodd" clip-rule="evenodd" viewBox="0 0 512 428.862"><path fill="#4299E1" fill-rule="nonzero" d="M315.727 314.278c-34.675-13.59-71.246-20.273-109.715-20.045-45.411.271-89.115 13.359-126.204 37.771-7.383 4.852-15.279-4.41-9.688-10.456 3.158-3.423 5.989-6.923 8.493-10.499 22.421-32.048 35.685-68.188 39.792-108.42 6.957-68.245-14.952-133.303-48.527-192.599-1.38-2.433-.043-7.014 2.433-8.636C74.9-.303 77.542-.451 80.235.953 132.75 28.42 179.636 62.378 220.893 102.83c57.162 56.038 99.358 124.894 109.245 204.947.589 4.733-1.261 7.606-5.548 8.621-2.76.655-6.018-1.01-8.863-2.12zm52.41 95.631c8.821 6.616 17.016 5.976 25.395-.156 9.437-6.915 19.158-14.018 29.164-21.312 8.607-6.274 18.865-8.493 29.307-5.662 4.088 1.119 8.821 3.67 14.198 7.654a2169.868 2169.868 0 0028.296 20.671c3.064 2.191 6.35 3.31 9.86 3.358 4.486.066 7.018 2.323 7.597 6.771a4.672 4.672 0 01-.285 2.391c-1.29 3.319-3.713 4.984-7.27 4.993-6.373.029-12.183-1.783-17.427-5.434a955.133 955.133 0 01-30.047-21.838c-7.867-5.933-16.516-7.981-24.854-1.949a12480.728 12480.728 0 00-31.326 22.705c-8.859 6.441-18.476 8.266-28.852 5.478-4.391-1.186-9.238-3.771-14.539-7.754-9.74-7.312-18.955-14.027-27.643-20.144-7.511-5.302-15.094-5.269-22.747.099-8.394 5.89-17.2 12.306-26.419 19.248-5.994 4.515-11.173 7.365-15.536 8.551-10.309 2.816-19.955.995-28.936-5.464a2286.243 2286.243 0 01-28.696-20.969c-9.858-7.313-17.512-6.971-27.215.085a18230.827 18230.827 0 00-29.065 21.197c-8.469 6.184-17.973 7.887-28.509 5.108-4.382-1.157-9.219-3.732-14.512-7.725-9.152-6.905-18.954-14.023-29.406-21.354-5.932-4.169-14.853-3.159-20.472.939a3850.176 3850.176 0 01-32.735 23.602c-5.444 3.879-11.798 5.728-19.064 5.548-2.93-.066-4.993-1.888-6.188-5.463a4.026 4.026 0 01-.185-1.75c.446-4.4 2.878-6.701 7.298-6.9 4.126-.18 7.607-1.304 10.442-3.371a12303.151 12303.151 0 0131.242-22.692c.256-.19.308-.427.156-.711a2602.345 2602.345 0 00-13.97-24.555c-3.016-5.207-.355-10.955 5.833-11.353a823836.566 823836.566 0 00428.29-26.931 45.835 45.835 0 015.576-.028c4.354.242 6.943 5.164 5.734 9.119-.398 1.319-1.584 2.865-3.557 4.638-31.81 28.61-69.298 51.23-108.819 70.151-.693.341-.73.745-.114 1.209zM53.319 365.636a.17.17 0 00-.1.241l8.934 15.608a1.197 1.197 0 001.238.582c8.953-1.507 17 .214 24.142 5.165 9.456 6.545 19.457 13.795 30.004 21.752 7.924 5.976 16.233 8.081 24.655 2.12 8.241-5.833 18.02-12.941 29.335-21.325 10.214-7.569 20.372-10.272 32.636-6.601 3.518 1.052 8.369 3.897 14.553 8.535a1354.678 1354.678 0 0025.295 18.466c9.162 6.53 17.072 5.563 25.892-1.095a958.934 958.934 0 0129.99-21.781c12.662-8.835 28.04-7.042 40.261 2.148a537.008 537.008 0 0013.145 9.603c.419.305.984.363 1.47.146 35.174-16.069 67.429-35.299 96.764-57.692 1.243-.949 1.086-1.37-.469-1.266-132.354 8.336-263.751 16.603-394.189 24.797a17.908 17.908 0 00-3.556.597zm302.626-66.395c-16.573-64.745-45.269-126.858-86.582-177.533-17.764-21.785-36.98-39.849-57.646-54.189-5.193-3.599-2.291-12.433 4.054-12.405 1.622 0 3.386.431 5.293 1.294 93.354 42.111 160.646 122.491 199.257 216.443a349.933 349.933 0 0111.31 31.81c2.034 6.701-4.212 12.776-10.457 8.806-16.076-10.2-37.487-10.954-57.589-8.422-3.756.47-6.758-2.332-7.64-5.804zm13.06-9.005c14.369-1.423 29.492-.484 43.448 3.628a.4.4 0 00.483-.513c-27.841-75.557-75.385-144.214-140.7-191.19-1.185-.845-1.299-.716-.341.384 46.407 53.321 78.033 118.536 96.228 187.079.123.455.417.659.882.612zM122.061 95.346c20.301 70.066 15.18 144.727-21.354 207.936a.213.213 0 00.285.298c33.394-15.488 68.638-23.346 105.731-23.573 36.648-.228 72.347 5.842 107.098 18.21a.428.428 0 00.569-.471c-13.942-87.805-72.186-161.698-139.207-216.84-24.83-20.438-51.457-38.938-79.882-55.497-.92-.541-1.133-.333-.64.626 11.116 21.539 20.249 44.643 27.4 69.311z"/></svg>