<svg width="396" height="369" viewBox="0 0 396 369" version="1.1" xmlns="http://www.w3.org/2000/svg" xmlns:xlink="http://www.w3.org/1999/xlink">
<title>logo</title>
<desc>Created using Figma</desc>
<g id="Canvas" transform="translate(-21351 -7523)">
<g id="logo">
<g id="Shape 1 copy 2.1">
<use xlink:href="#path0_fill" transform="translate(21366.5 7523)" fill="#9CA2BD"/>
</g>
<g id="Shape 1 copy 2">
<use xlink:href="#path0_fill" transform="translate(21351 7523)" fill="#2C75FF"/>
</g>
</g>
</g>
<defs>
<path id="path0_fill" fill-rule="evenodd" d="M 135.079 24.1C 140.621 36.9884 142.888 51.063 141.676 65.0539C 158.358 59.3717 175.953 56.9034 193.542 57.7782C 211.289 56.9588 228.921 61.0416 244.529 69.5847C 242.302 55.086 244.769 40.2507 251.565 27.273C 256.072 18.3493 262.533 10.5729 270.462 4.53074C 292.983 14.0079 312.782 29.0229 328.045 48.2001C 348.952 72.6164 364.212 101.401 372.725 132.476C 381.238 163.552 382.791 196.142 377.272 227.895C 358.831 331.645 262.12 368.526 191.358 368.954C 154.656 369.763 118.494 359.947 87.1713 340.671C 55.8488 321.395 30.6828 293.47 14.6646 260.216C -16.1208 192.431 7.33477 112.811 32.2563 73.2447C 51.578 40.9596 80.251 15.4002 114.424 1.04863e-13C 122.822 6.58221 129.842 14.773 135.079 24.1ZM 97.7119 68.6844C 77.2157 91.1515 62.1632 118.09 53.7327 147.39C 44.6236 177.993 46.4917 210.846 59.0102 240.204C 71.2118 264.262 89.8727 284.391 112.872 298.304C 135.871 312.217 162.287 319.356 189.115 318.909C 272.192 319.366 304.795 278.53 318.795 255.213C 334.93 223.344 339.464 186.79 331.607 151.906C 326.911 123.466 312.033 97.7413 289.783 79.5907L 294.621 151.478C 268.085 124.253 232.012 108.577 194.132 107.81C 156.252 107.043 119.581 121.246 91.9799 147.375L 97.7119 68.6844Z"/>
</defs>
</svg>
