<svg xmlns="http://www.w3.org/2000/svg" xmlns:xlink="http://www.w3.org/1999/xlink" version="1.1" width="256" height="256" viewBox="0 0 256 256" xml:space="preserve">

<defs>
</defs>
<g style="stroke: none; stroke-width: 0; stroke-dasharray: none; stroke-linecap: butt; stroke-linejoin: miter; stroke-miterlimit: 10; fill: none; fill-rule: nonzero; opacity: 1;" transform="translate(1.4065934065934016 1.4065934065934016) scale(2.81 2.81)" >
	<path d="M 44.913 26.682 H 15.231 c -8.28 0 -15.002 -3.611 -15.211 -11.841 C 0.016 14.972 0 15.099 0 15.231 v 31.303 c 8.265 10.233 20.908 16.784 35.087 16.784 h 0.682 c 8.28 0 12.002 3.611 12.211 11.841 c 0.003 -0.131 0.02 -0.258 0.02 -0.39 C 48 83.181 44.181 90 35.769 90 h 39 C 83.181 90 90 83.181 90 74.769 C 90 42.732 69.814 26.682 44.913 26.682 z" style="stroke: none; stroke-width: 1; stroke-dasharray: none; stroke-linecap: butt; stroke-linejoin: miter; stroke-miterlimit: 10; fill: rgb(229,0,151); fill-rule: nonzero; opacity: 1;" transform=" matrix(1 0 0 1 0 0) " stroke-linecap="round" />
	<path d="M 90 74.769 L 90 74.769 c 0 -24.901 -20.186 -45.087 -45.087 -45.087 H 15.231 c -8.28 0 -15.002 -6.611 -15.211 -14.841 C 0.016 14.972 0 15.099 0 15.231 C 0 6.819 6.819 0 15.231 0 h 59.538 C 83.181 0 90 6.819 90 15.231 V 74.769" style="stroke: none; stroke-width: 1; stroke-dasharray: none; stroke-linecap: butt; stroke-linejoin: miter; stroke-miterlimit: 10; fill: rgb(248,0,164); fill-rule: nonzero; opacity: 1;" transform=" matrix(1 0 0 1 0 0) " stroke-linecap="round" />
	<path d="M 0 74.769 V 43.534 c 8.265 10.233 20.908 16.784 35.087 16.784 h 0.682 c 8.28 0 15.002 6.611 15.211 14.841 c 0.003 -0.131 0.02 -0.258 0.02 -0.39 C 51 83.181 44.181 90 35.769 90 H 15.231 C 6.819 90 0 83.181 0 74.769 z" style="stroke: none; stroke-width: 1; stroke-dasharray: none; stroke-linecap: butt; stroke-linejoin: miter; stroke-miterlimit: 10; fill: rgb(210,0,139); fill-rule: nonzero; opacity: 1;" transform=" matrix(1 0 0 1 0 0) " stroke-linecap="round" />
	<path d="M 59.358 42.809 c -0.258 -0.124 -0.521 -0.243 -0.787 -0.357 c -0.463 -8.533 -5.126 -13.419 -12.955 -13.469 c -0.035 0 -0.071 0 -0.106 0 c -4.683 0 -8.578 1.999 -10.975 5.636 l 4.306 2.954 c 1.791 -2.717 4.601 -3.296 6.671 -3.296 c 0.024 0 0.048 0 0.072 0 c 2.578 0.016 4.523 0.766 5.782 2.228 c 0.916 1.064 1.529 2.535 1.833 4.391 c -2.286 -0.388 -4.757 -0.508 -7.4 -0.356 c -7.444 0.429 -12.229 4.77 -11.908 10.803 c 0.163 3.06 1.688 5.692 4.292 7.412 c 2.202 1.454 5.039 2.165 7.987 2.004 c 3.893 -0.213 6.947 -1.699 9.078 -4.415 c 1.618 -2.063 2.642 -4.735 3.093 -8.103 c 1.855 1.12 3.23 2.593 3.99 4.364 c 1.291 3.011 1.367 7.959 -2.671 11.992 c -3.537 3.534 -7.789 5.063 -14.215 5.11 c -7.128 -0.053 -12.519 -2.339 -16.024 -6.794 C 26.139 58.739 24.442 52.713 24.379 45 c 0.063 -7.713 1.759 -13.74 5.042 -17.912 c 3.505 -4.456 8.896 -6.741 16.023 -6.794 c 7.18 0.053 12.664 2.35 16.303 6.827 c 1.784 2.195 3.13 4.957 4.017 8.176 l 5.046 -1.346 c -1.075 -3.962 -2.767 -7.377 -5.068 -10.209 c -4.665 -5.74 -11.488 -8.681 -20.28 -8.742 h -0.035 c -8.774 0.061 -15.52 3.013 -20.053 8.775 c -4.033 5.127 -6.114 12.261 -6.184 21.204 l 0 0.021 l 0 0.021 c 0.07 8.943 2.15 16.077 6.184 21.204 c 4.532 5.762 11.279 8.714 20.053 8.775 h 0.035 c 7.8 -0.054 13.298 -2.096 17.828 -6.622 c 5.926 -5.92 5.748 -13.341 3.794 -17.897 C 65.683 47.215 63.011 44.561 59.358 42.809 z M 45.89 55.471 c -3.263 0.184 -6.652 -1.281 -6.819 -4.417 c -0.124 -2.326 1.655 -4.921 7.019 -5.23 c 0.614 -0.035 1.217 -0.053 1.809 -0.053 c 1.948 0 3.771 0.189 5.428 0.552 C 52.71 54.042 49.084 55.296 45.89 55.471 z" style="stroke: none; stroke-width: 1; stroke-dasharray: none; stroke-linecap: butt; stroke-linejoin: miter; stroke-miterlimit: 10; fill: rgb(255,255,255); fill-rule: nonzero; opacity: 1;" transform=" matrix(1 0 0 1 0 0) " stroke-linecap="round" />
</g>
</svg>